G75*
%MOIN*%
%OFA0B0*%
%FSLAX25Y25*%
%IPPOS*%
%LPD*%
%AMOC8*
5,1,8,0,0,1.08239X$1,22.5*
%
%ADD10C,0.00000*%
%ADD11C,0.00300*%
D10*
X0001000Y0001000D02*
X0001000Y0115173D01*
X0115173Y0115173D01*
X0115173Y0001000D01*
X0001000Y0001000D01*
X0010843Y0058087D02*
X0010845Y0058212D01*
X0010851Y0058337D01*
X0010861Y0058461D01*
X0010875Y0058585D01*
X0010892Y0058709D01*
X0010914Y0058832D01*
X0010940Y0058954D01*
X0010969Y0059076D01*
X0011002Y0059196D01*
X0011040Y0059315D01*
X0011080Y0059434D01*
X0011125Y0059550D01*
X0011173Y0059665D01*
X0011225Y0059779D01*
X0011281Y0059891D01*
X0011340Y0060001D01*
X0011402Y0060109D01*
X0011468Y0060216D01*
X0011537Y0060320D01*
X0011610Y0060421D01*
X0011685Y0060521D01*
X0011764Y0060618D01*
X0011846Y0060712D01*
X0011931Y0060804D01*
X0012018Y0060893D01*
X0012109Y0060979D01*
X0012202Y0061062D01*
X0012298Y0061143D01*
X0012396Y0061220D01*
X0012496Y0061294D01*
X0012599Y0061365D01*
X0012704Y0061432D01*
X0012812Y0061497D01*
X0012921Y0061557D01*
X0013032Y0061615D01*
X0013145Y0061668D01*
X0013259Y0061718D01*
X0013375Y0061765D01*
X0013492Y0061807D01*
X0013611Y0061846D01*
X0013731Y0061882D01*
X0013852Y0061913D01*
X0013974Y0061941D01*
X0014096Y0061964D01*
X0014220Y0061984D01*
X0014344Y0062000D01*
X0014468Y0062012D01*
X0014593Y0062020D01*
X0014718Y0062024D01*
X0014842Y0062024D01*
X0014967Y0062020D01*
X0015092Y0062012D01*
X0015216Y0062000D01*
X0015340Y0061984D01*
X0015464Y0061964D01*
X0015586Y0061941D01*
X0015708Y0061913D01*
X0015829Y0061882D01*
X0015949Y0061846D01*
X0016068Y0061807D01*
X0016185Y0061765D01*
X0016301Y0061718D01*
X0016415Y0061668D01*
X0016528Y0061615D01*
X0016639Y0061557D01*
X0016749Y0061497D01*
X0016856Y0061432D01*
X0016961Y0061365D01*
X0017064Y0061294D01*
X0017164Y0061220D01*
X0017262Y0061143D01*
X0017358Y0061062D01*
X0017451Y0060979D01*
X0017542Y0060893D01*
X0017629Y0060804D01*
X0017714Y0060712D01*
X0017796Y0060618D01*
X0017875Y0060521D01*
X0017950Y0060421D01*
X0018023Y0060320D01*
X0018092Y0060216D01*
X0018158Y0060109D01*
X0018220Y0060001D01*
X0018279Y0059891D01*
X0018335Y0059779D01*
X0018387Y0059665D01*
X0018435Y0059550D01*
X0018480Y0059434D01*
X0018520Y0059315D01*
X0018558Y0059196D01*
X0018591Y0059076D01*
X0018620Y0058954D01*
X0018646Y0058832D01*
X0018668Y0058709D01*
X0018685Y0058585D01*
X0018699Y0058461D01*
X0018709Y0058337D01*
X0018715Y0058212D01*
X0018717Y0058087D01*
X0018715Y0057962D01*
X0018709Y0057837D01*
X0018699Y0057713D01*
X0018685Y0057589D01*
X0018668Y0057465D01*
X0018646Y0057342D01*
X0018620Y0057220D01*
X0018591Y0057098D01*
X0018558Y0056978D01*
X0018520Y0056859D01*
X0018480Y0056740D01*
X0018435Y0056624D01*
X0018387Y0056509D01*
X0018335Y0056395D01*
X0018279Y0056283D01*
X0018220Y0056173D01*
X0018158Y0056065D01*
X0018092Y0055958D01*
X0018023Y0055854D01*
X0017950Y0055753D01*
X0017875Y0055653D01*
X0017796Y0055556D01*
X0017714Y0055462D01*
X0017629Y0055370D01*
X0017542Y0055281D01*
X0017451Y0055195D01*
X0017358Y0055112D01*
X0017262Y0055031D01*
X0017164Y0054954D01*
X0017064Y0054880D01*
X0016961Y0054809D01*
X0016856Y0054742D01*
X0016748Y0054677D01*
X0016639Y0054617D01*
X0016528Y0054559D01*
X0016415Y0054506D01*
X0016301Y0054456D01*
X0016185Y0054409D01*
X0016068Y0054367D01*
X0015949Y0054328D01*
X0015829Y0054292D01*
X0015708Y0054261D01*
X0015586Y0054233D01*
X0015464Y0054210D01*
X0015340Y0054190D01*
X0015216Y0054174D01*
X0015092Y0054162D01*
X0014967Y0054154D01*
X0014842Y0054150D01*
X0014718Y0054150D01*
X0014593Y0054154D01*
X0014468Y0054162D01*
X0014344Y0054174D01*
X0014220Y0054190D01*
X0014096Y0054210D01*
X0013974Y0054233D01*
X0013852Y0054261D01*
X0013731Y0054292D01*
X0013611Y0054328D01*
X0013492Y0054367D01*
X0013375Y0054409D01*
X0013259Y0054456D01*
X0013145Y0054506D01*
X0013032Y0054559D01*
X0012921Y0054617D01*
X0012811Y0054677D01*
X0012704Y0054742D01*
X0012599Y0054809D01*
X0012496Y0054880D01*
X0012396Y0054954D01*
X0012298Y0055031D01*
X0012202Y0055112D01*
X0012109Y0055195D01*
X0012018Y0055281D01*
X0011931Y0055370D01*
X0011846Y0055462D01*
X0011764Y0055556D01*
X0011685Y0055653D01*
X0011610Y0055753D01*
X0011537Y0055854D01*
X0011468Y0055958D01*
X0011402Y0056065D01*
X0011340Y0056173D01*
X0011281Y0056283D01*
X0011225Y0056395D01*
X0011173Y0056509D01*
X0011125Y0056624D01*
X0011080Y0056740D01*
X0011040Y0056859D01*
X0011002Y0056978D01*
X0010969Y0057098D01*
X0010940Y0057220D01*
X0010914Y0057342D01*
X0010892Y0057465D01*
X0010875Y0057589D01*
X0010861Y0057713D01*
X0010851Y0057837D01*
X0010845Y0057962D01*
X0010843Y0058087D01*
X0097457Y0058087D02*
X0097459Y0058212D01*
X0097465Y0058337D01*
X0097475Y0058461D01*
X0097489Y0058585D01*
X0097506Y0058709D01*
X0097528Y0058832D01*
X0097554Y0058954D01*
X0097583Y0059076D01*
X0097616Y0059196D01*
X0097654Y0059315D01*
X0097694Y0059434D01*
X0097739Y0059550D01*
X0097787Y0059665D01*
X0097839Y0059779D01*
X0097895Y0059891D01*
X0097954Y0060001D01*
X0098016Y0060109D01*
X0098082Y0060216D01*
X0098151Y0060320D01*
X0098224Y0060421D01*
X0098299Y0060521D01*
X0098378Y0060618D01*
X0098460Y0060712D01*
X0098545Y0060804D01*
X0098632Y0060893D01*
X0098723Y0060979D01*
X0098816Y0061062D01*
X0098912Y0061143D01*
X0099010Y0061220D01*
X0099110Y0061294D01*
X0099213Y0061365D01*
X0099318Y0061432D01*
X0099426Y0061497D01*
X0099535Y0061557D01*
X0099646Y0061615D01*
X0099759Y0061668D01*
X0099873Y0061718D01*
X0099989Y0061765D01*
X0100106Y0061807D01*
X0100225Y0061846D01*
X0100345Y0061882D01*
X0100466Y0061913D01*
X0100588Y0061941D01*
X0100710Y0061964D01*
X0100834Y0061984D01*
X0100958Y0062000D01*
X0101082Y0062012D01*
X0101207Y0062020D01*
X0101332Y0062024D01*
X0101456Y0062024D01*
X0101581Y0062020D01*
X0101706Y0062012D01*
X0101830Y0062000D01*
X0101954Y0061984D01*
X0102078Y0061964D01*
X0102200Y0061941D01*
X0102322Y0061913D01*
X0102443Y0061882D01*
X0102563Y0061846D01*
X0102682Y0061807D01*
X0102799Y0061765D01*
X0102915Y0061718D01*
X0103029Y0061668D01*
X0103142Y0061615D01*
X0103253Y0061557D01*
X0103363Y0061497D01*
X0103470Y0061432D01*
X0103575Y0061365D01*
X0103678Y0061294D01*
X0103778Y0061220D01*
X0103876Y0061143D01*
X0103972Y0061062D01*
X0104065Y0060979D01*
X0104156Y0060893D01*
X0104243Y0060804D01*
X0104328Y0060712D01*
X0104410Y0060618D01*
X0104489Y0060521D01*
X0104564Y0060421D01*
X0104637Y0060320D01*
X0104706Y0060216D01*
X0104772Y0060109D01*
X0104834Y0060001D01*
X0104893Y0059891D01*
X0104949Y0059779D01*
X0105001Y0059665D01*
X0105049Y0059550D01*
X0105094Y0059434D01*
X0105134Y0059315D01*
X0105172Y0059196D01*
X0105205Y0059076D01*
X0105234Y0058954D01*
X0105260Y0058832D01*
X0105282Y0058709D01*
X0105299Y0058585D01*
X0105313Y0058461D01*
X0105323Y0058337D01*
X0105329Y0058212D01*
X0105331Y0058087D01*
X0105329Y0057962D01*
X0105323Y0057837D01*
X0105313Y0057713D01*
X0105299Y0057589D01*
X0105282Y0057465D01*
X0105260Y0057342D01*
X0105234Y0057220D01*
X0105205Y0057098D01*
X0105172Y0056978D01*
X0105134Y0056859D01*
X0105094Y0056740D01*
X0105049Y0056624D01*
X0105001Y0056509D01*
X0104949Y0056395D01*
X0104893Y0056283D01*
X0104834Y0056173D01*
X0104772Y0056065D01*
X0104706Y0055958D01*
X0104637Y0055854D01*
X0104564Y0055753D01*
X0104489Y0055653D01*
X0104410Y0055556D01*
X0104328Y0055462D01*
X0104243Y0055370D01*
X0104156Y0055281D01*
X0104065Y0055195D01*
X0103972Y0055112D01*
X0103876Y0055031D01*
X0103778Y0054954D01*
X0103678Y0054880D01*
X0103575Y0054809D01*
X0103470Y0054742D01*
X0103362Y0054677D01*
X0103253Y0054617D01*
X0103142Y0054559D01*
X0103029Y0054506D01*
X0102915Y0054456D01*
X0102799Y0054409D01*
X0102682Y0054367D01*
X0102563Y0054328D01*
X0102443Y0054292D01*
X0102322Y0054261D01*
X0102200Y0054233D01*
X0102078Y0054210D01*
X0101954Y0054190D01*
X0101830Y0054174D01*
X0101706Y0054162D01*
X0101581Y0054154D01*
X0101456Y0054150D01*
X0101332Y0054150D01*
X0101207Y0054154D01*
X0101082Y0054162D01*
X0100958Y0054174D01*
X0100834Y0054190D01*
X0100710Y0054210D01*
X0100588Y0054233D01*
X0100466Y0054261D01*
X0100345Y0054292D01*
X0100225Y0054328D01*
X0100106Y0054367D01*
X0099989Y0054409D01*
X0099873Y0054456D01*
X0099759Y0054506D01*
X0099646Y0054559D01*
X0099535Y0054617D01*
X0099425Y0054677D01*
X0099318Y0054742D01*
X0099213Y0054809D01*
X0099110Y0054880D01*
X0099010Y0054954D01*
X0098912Y0055031D01*
X0098816Y0055112D01*
X0098723Y0055195D01*
X0098632Y0055281D01*
X0098545Y0055370D01*
X0098460Y0055462D01*
X0098378Y0055556D01*
X0098299Y0055653D01*
X0098224Y0055753D01*
X0098151Y0055854D01*
X0098082Y0055958D01*
X0098016Y0056065D01*
X0097954Y0056173D01*
X0097895Y0056283D01*
X0097839Y0056395D01*
X0097787Y0056509D01*
X0097739Y0056624D01*
X0097694Y0056740D01*
X0097654Y0056859D01*
X0097616Y0056978D01*
X0097583Y0057098D01*
X0097554Y0057220D01*
X0097528Y0057342D01*
X0097506Y0057465D01*
X0097489Y0057589D01*
X0097475Y0057713D01*
X0097465Y0057837D01*
X0097459Y0057962D01*
X0097457Y0058087D01*
D11*
X0097393Y0033304D02*
X0097393Y0030402D01*
X0099372Y0030886D02*
X0099856Y0030402D01*
X0100823Y0030402D01*
X0101307Y0030886D01*
X0101307Y0031853D01*
X0100340Y0031853D01*
X0101307Y0032821D02*
X0100823Y0033304D01*
X0099856Y0033304D01*
X0099372Y0032821D01*
X0099372Y0030886D01*
X0098361Y0033304D02*
X0096426Y0033304D01*
X0102319Y0033304D02*
X0102319Y0030402D01*
X0104254Y0030402D02*
X0104254Y0033304D01*
X0105265Y0033304D02*
X0106716Y0033304D01*
X0107200Y0032821D01*
X0107200Y0030886D01*
X0106716Y0030402D01*
X0105265Y0030402D01*
X0105265Y0033304D01*
X0102319Y0033304D02*
X0104254Y0030402D01*
X0100771Y0009761D02*
X0099804Y0009761D01*
X0099320Y0009277D01*
X0099320Y0007342D01*
X0099804Y0006859D01*
X0100771Y0006859D01*
X0101255Y0007342D01*
X0101255Y0009277D02*
X0100771Y0009761D01*
X0098309Y0009277D02*
X0097825Y0009761D01*
X0096857Y0009761D01*
X0096374Y0009277D01*
X0096374Y0007342D01*
X0096857Y0006859D01*
X0097825Y0006859D01*
X0098309Y0007342D01*
X0095362Y0007826D02*
X0095362Y0009761D01*
X0095362Y0007826D02*
X0094395Y0006859D01*
X0093427Y0007826D01*
X0093427Y0009761D01*
X0092416Y0009761D02*
X0090481Y0009761D01*
X0091448Y0009761D02*
X0091448Y0006859D01*
X0086223Y0006859D02*
X0083755Y0006859D01*
X0082530Y0006859D02*
X0081913Y0006859D01*
X0081913Y0007476D01*
X0082530Y0007476D01*
X0082530Y0006859D01*
X0080699Y0006859D02*
X0078230Y0006859D01*
X0079464Y0006859D02*
X0079464Y0010562D01*
X0078230Y0009327D01*
X0077016Y0009327D02*
X0075781Y0006859D01*
X0074547Y0009327D01*
X0069649Y0009945D02*
X0069032Y0010562D01*
X0067798Y0010562D01*
X0067180Y0009945D01*
X0067180Y0007476D01*
X0067798Y0006859D01*
X0069032Y0006859D01*
X0069649Y0007476D01*
X0065966Y0006859D02*
X0065966Y0009327D01*
X0064732Y0010562D01*
X0063497Y0009327D01*
X0063497Y0006859D01*
X0062283Y0006859D02*
X0062283Y0010562D01*
X0061049Y0009327D01*
X0059814Y0010562D01*
X0059814Y0006859D01*
X0063497Y0008710D02*
X0065966Y0008710D01*
X0054917Y0010562D02*
X0052448Y0006859D01*
X0047550Y0010562D02*
X0045082Y0010562D01*
X0046316Y0010562D02*
X0046316Y0006859D01*
X0043867Y0007476D02*
X0043250Y0006859D01*
X0042016Y0006859D01*
X0041398Y0007476D01*
X0042016Y0008710D02*
X0043250Y0008710D01*
X0043867Y0008093D01*
X0043867Y0007476D01*
X0042016Y0008710D02*
X0041398Y0009327D01*
X0041398Y0009945D01*
X0042016Y0010562D01*
X0043250Y0010562D01*
X0043867Y0009945D01*
X0040184Y0008710D02*
X0037715Y0008710D01*
X0036501Y0007476D02*
X0036501Y0009945D01*
X0035884Y0010562D01*
X0034649Y0010562D01*
X0034032Y0009945D01*
X0034032Y0007476D01*
X0034649Y0006859D01*
X0035884Y0006859D01*
X0036501Y0007476D01*
X0032818Y0010562D02*
X0030349Y0010562D01*
X0029135Y0010562D02*
X0029135Y0006859D01*
X0031583Y0006859D02*
X0031583Y0010562D01*
X0029135Y0010562D02*
X0027900Y0009327D01*
X0026666Y0010562D01*
X0026666Y0006859D01*
X0025452Y0006859D02*
X0022983Y0006859D01*
X0022983Y0010562D01*
X0025452Y0010562D01*
X0024217Y0008710D02*
X0022983Y0008710D01*
X0021768Y0010562D02*
X0019300Y0010562D01*
X0019300Y0006859D01*
X0019300Y0008710D02*
X0020534Y0008710D01*
X0027539Y0025481D02*
X0028507Y0025481D01*
X0028990Y0025964D01*
X0030002Y0025964D02*
X0030486Y0025481D01*
X0031453Y0025481D01*
X0031937Y0025964D01*
X0031937Y0026448D01*
X0031453Y0026932D01*
X0030970Y0026932D01*
X0031453Y0026932D02*
X0031937Y0027416D01*
X0031937Y0027899D01*
X0031453Y0028383D01*
X0030486Y0028383D01*
X0030002Y0027899D01*
X0028990Y0027899D02*
X0028507Y0028383D01*
X0027539Y0028383D01*
X0027056Y0027899D01*
X0027056Y0025964D01*
X0027539Y0025481D01*
X0029626Y0049142D02*
X0030593Y0049142D01*
X0031077Y0049626D01*
X0032089Y0049142D02*
X0034024Y0051077D01*
X0034024Y0051561D01*
X0033540Y0052045D01*
X0032572Y0052045D01*
X0032089Y0051561D01*
X0031077Y0051561D02*
X0030593Y0052045D01*
X0029626Y0052045D01*
X0029142Y0051561D01*
X0029142Y0049626D01*
X0029626Y0049142D01*
X0032089Y0049142D02*
X0034024Y0049142D01*
X0056937Y0039761D02*
X0057905Y0039761D01*
X0057421Y0039761D02*
X0057421Y0036859D01*
X0056937Y0036859D02*
X0057905Y0036859D01*
X0058902Y0037342D02*
X0059385Y0036859D01*
X0060353Y0036859D01*
X0060837Y0037342D01*
X0061848Y0036859D02*
X0063783Y0036859D01*
X0062816Y0036859D02*
X0062816Y0039761D01*
X0061848Y0038794D01*
X0060837Y0039277D02*
X0060353Y0039761D01*
X0059385Y0039761D01*
X0058902Y0039277D01*
X0058902Y0037342D01*
X0084989Y0010562D02*
X0084989Y0006859D01*
X0083755Y0009327D02*
X0084989Y0010562D01*
X0069772Y0078473D02*
X0067837Y0078473D01*
X0068804Y0078473D02*
X0068804Y0081375D01*
X0067837Y0080408D01*
X0066825Y0080892D02*
X0066341Y0081375D01*
X0065374Y0081375D01*
X0064890Y0080892D01*
X0064890Y0078957D01*
X0065374Y0078473D01*
X0066341Y0078473D01*
X0066825Y0078957D01*
X0062252Y0094772D02*
X0060317Y0094772D01*
X0061284Y0094772D02*
X0061284Y0097675D01*
X0060317Y0096707D01*
X0059305Y0097191D02*
X0059305Y0096223D01*
X0058822Y0095740D01*
X0057370Y0095740D01*
X0057370Y0094772D02*
X0057370Y0097675D01*
X0058822Y0097675D01*
X0059305Y0097191D01*
X0058338Y0095740D02*
X0059305Y0094772D01*
X0038748Y0094772D02*
X0036813Y0094772D01*
X0038748Y0096707D01*
X0038748Y0097191D01*
X0038264Y0097675D01*
X0037297Y0097675D01*
X0036813Y0097191D01*
X0035802Y0097191D02*
X0035802Y0096223D01*
X0035318Y0095740D01*
X0033867Y0095740D01*
X0034834Y0095740D02*
X0035802Y0094772D01*
X0033867Y0094772D02*
X0033867Y0097675D01*
X0035318Y0097675D01*
X0035802Y0097191D01*
X0024542Y0108445D02*
X0024542Y0110380D01*
X0023574Y0109412D02*
X0025509Y0109412D01*
X0022563Y0109412D02*
X0021595Y0109412D01*
X0022563Y0109412D02*
X0022563Y0108445D01*
X0022079Y0107961D01*
X0021112Y0107961D01*
X0020628Y0108445D01*
X0020628Y0110380D01*
X0021112Y0110863D01*
X0022079Y0110863D01*
X0022563Y0110380D01*
X0019631Y0110863D02*
X0018663Y0110863D01*
X0019147Y0110863D02*
X0019147Y0107961D01*
X0018663Y0107961D02*
X0019631Y0107961D01*
X0017652Y0108445D02*
X0017168Y0107961D01*
X0016201Y0107961D01*
X0015717Y0108445D01*
X0016201Y0109412D02*
X0017168Y0109412D01*
X0017652Y0108929D01*
X0017652Y0108445D01*
X0016201Y0109412D02*
X0015717Y0109896D01*
X0015717Y0110380D01*
X0016201Y0110863D01*
X0017168Y0110863D01*
X0017652Y0110380D01*
X0017505Y0088144D02*
X0016537Y0088144D01*
X0017021Y0088144D02*
X0017021Y0085241D01*
X0016537Y0085241D02*
X0017505Y0085241D01*
X0018502Y0085725D02*
X0018986Y0085241D01*
X0019953Y0085241D01*
X0020437Y0085725D01*
X0020437Y0086693D01*
X0019469Y0086693D01*
X0018502Y0087660D02*
X0018502Y0085725D01*
X0018502Y0087660D02*
X0018986Y0088144D01*
X0019953Y0088144D01*
X0020437Y0087660D01*
X0020935Y0083344D02*
X0019484Y0083344D01*
X0019484Y0080441D01*
X0020935Y0080441D01*
X0021419Y0080925D01*
X0021419Y0082860D01*
X0020935Y0083344D01*
X0018472Y0083344D02*
X0018472Y0080441D01*
X0016537Y0083344D01*
X0016537Y0080441D01*
X0015526Y0080925D02*
X0015526Y0081893D01*
X0014558Y0081893D01*
X0013591Y0082860D02*
X0013591Y0080925D01*
X0014075Y0080441D01*
X0015042Y0080441D01*
X0015526Y0080925D01*
X0015526Y0082860D02*
X0015042Y0083344D01*
X0014075Y0083344D01*
X0013591Y0082860D01*
X0014075Y0085241D02*
X0013591Y0085725D01*
X0014075Y0085241D02*
X0015042Y0085241D01*
X0015526Y0085725D01*
X0015526Y0086209D01*
X0015042Y0086693D01*
X0014075Y0086693D01*
X0013591Y0087176D01*
X0013591Y0087660D01*
X0014075Y0088144D01*
X0015042Y0088144D01*
X0015526Y0087660D01*
M02*
