G75*
%MOIN*%
%OFA0B0*%
%FSLAX25Y25*%
%IPPOS*%
%LPD*%
%AMOC8*
5,1,8,0,0,1.08239X$1,22.5*
%
%ADD10C,0.00000*%
%ADD11C,0.05937*%
%ADD12R,0.03937X0.17913*%
%ADD13C,0.01969*%
%ADD14C,0.03569*%
%ADD15C,0.04750*%
D10*
X0001000Y0001000D02*
X0001000Y0115173D01*
X0115173Y0115173D01*
X0115173Y0001000D01*
X0001000Y0001000D01*
X0010843Y0058087D02*
X0010845Y0058212D01*
X0010851Y0058337D01*
X0010861Y0058461D01*
X0010875Y0058585D01*
X0010892Y0058709D01*
X0010914Y0058832D01*
X0010940Y0058954D01*
X0010969Y0059076D01*
X0011002Y0059196D01*
X0011040Y0059315D01*
X0011080Y0059434D01*
X0011125Y0059550D01*
X0011173Y0059665D01*
X0011225Y0059779D01*
X0011281Y0059891D01*
X0011340Y0060001D01*
X0011402Y0060109D01*
X0011468Y0060216D01*
X0011537Y0060320D01*
X0011610Y0060421D01*
X0011685Y0060521D01*
X0011764Y0060618D01*
X0011846Y0060712D01*
X0011931Y0060804D01*
X0012018Y0060893D01*
X0012109Y0060979D01*
X0012202Y0061062D01*
X0012298Y0061143D01*
X0012396Y0061220D01*
X0012496Y0061294D01*
X0012599Y0061365D01*
X0012704Y0061432D01*
X0012812Y0061497D01*
X0012921Y0061557D01*
X0013032Y0061615D01*
X0013145Y0061668D01*
X0013259Y0061718D01*
X0013375Y0061765D01*
X0013492Y0061807D01*
X0013611Y0061846D01*
X0013731Y0061882D01*
X0013852Y0061913D01*
X0013974Y0061941D01*
X0014096Y0061964D01*
X0014220Y0061984D01*
X0014344Y0062000D01*
X0014468Y0062012D01*
X0014593Y0062020D01*
X0014718Y0062024D01*
X0014842Y0062024D01*
X0014967Y0062020D01*
X0015092Y0062012D01*
X0015216Y0062000D01*
X0015340Y0061984D01*
X0015464Y0061964D01*
X0015586Y0061941D01*
X0015708Y0061913D01*
X0015829Y0061882D01*
X0015949Y0061846D01*
X0016068Y0061807D01*
X0016185Y0061765D01*
X0016301Y0061718D01*
X0016415Y0061668D01*
X0016528Y0061615D01*
X0016639Y0061557D01*
X0016749Y0061497D01*
X0016856Y0061432D01*
X0016961Y0061365D01*
X0017064Y0061294D01*
X0017164Y0061220D01*
X0017262Y0061143D01*
X0017358Y0061062D01*
X0017451Y0060979D01*
X0017542Y0060893D01*
X0017629Y0060804D01*
X0017714Y0060712D01*
X0017796Y0060618D01*
X0017875Y0060521D01*
X0017950Y0060421D01*
X0018023Y0060320D01*
X0018092Y0060216D01*
X0018158Y0060109D01*
X0018220Y0060001D01*
X0018279Y0059891D01*
X0018335Y0059779D01*
X0018387Y0059665D01*
X0018435Y0059550D01*
X0018480Y0059434D01*
X0018520Y0059315D01*
X0018558Y0059196D01*
X0018591Y0059076D01*
X0018620Y0058954D01*
X0018646Y0058832D01*
X0018668Y0058709D01*
X0018685Y0058585D01*
X0018699Y0058461D01*
X0018709Y0058337D01*
X0018715Y0058212D01*
X0018717Y0058087D01*
X0018715Y0057962D01*
X0018709Y0057837D01*
X0018699Y0057713D01*
X0018685Y0057589D01*
X0018668Y0057465D01*
X0018646Y0057342D01*
X0018620Y0057220D01*
X0018591Y0057098D01*
X0018558Y0056978D01*
X0018520Y0056859D01*
X0018480Y0056740D01*
X0018435Y0056624D01*
X0018387Y0056509D01*
X0018335Y0056395D01*
X0018279Y0056283D01*
X0018220Y0056173D01*
X0018158Y0056065D01*
X0018092Y0055958D01*
X0018023Y0055854D01*
X0017950Y0055753D01*
X0017875Y0055653D01*
X0017796Y0055556D01*
X0017714Y0055462D01*
X0017629Y0055370D01*
X0017542Y0055281D01*
X0017451Y0055195D01*
X0017358Y0055112D01*
X0017262Y0055031D01*
X0017164Y0054954D01*
X0017064Y0054880D01*
X0016961Y0054809D01*
X0016856Y0054742D01*
X0016748Y0054677D01*
X0016639Y0054617D01*
X0016528Y0054559D01*
X0016415Y0054506D01*
X0016301Y0054456D01*
X0016185Y0054409D01*
X0016068Y0054367D01*
X0015949Y0054328D01*
X0015829Y0054292D01*
X0015708Y0054261D01*
X0015586Y0054233D01*
X0015464Y0054210D01*
X0015340Y0054190D01*
X0015216Y0054174D01*
X0015092Y0054162D01*
X0014967Y0054154D01*
X0014842Y0054150D01*
X0014718Y0054150D01*
X0014593Y0054154D01*
X0014468Y0054162D01*
X0014344Y0054174D01*
X0014220Y0054190D01*
X0014096Y0054210D01*
X0013974Y0054233D01*
X0013852Y0054261D01*
X0013731Y0054292D01*
X0013611Y0054328D01*
X0013492Y0054367D01*
X0013375Y0054409D01*
X0013259Y0054456D01*
X0013145Y0054506D01*
X0013032Y0054559D01*
X0012921Y0054617D01*
X0012811Y0054677D01*
X0012704Y0054742D01*
X0012599Y0054809D01*
X0012496Y0054880D01*
X0012396Y0054954D01*
X0012298Y0055031D01*
X0012202Y0055112D01*
X0012109Y0055195D01*
X0012018Y0055281D01*
X0011931Y0055370D01*
X0011846Y0055462D01*
X0011764Y0055556D01*
X0011685Y0055653D01*
X0011610Y0055753D01*
X0011537Y0055854D01*
X0011468Y0055958D01*
X0011402Y0056065D01*
X0011340Y0056173D01*
X0011281Y0056283D01*
X0011225Y0056395D01*
X0011173Y0056509D01*
X0011125Y0056624D01*
X0011080Y0056740D01*
X0011040Y0056859D01*
X0011002Y0056978D01*
X0010969Y0057098D01*
X0010940Y0057220D01*
X0010914Y0057342D01*
X0010892Y0057465D01*
X0010875Y0057589D01*
X0010861Y0057713D01*
X0010851Y0057837D01*
X0010845Y0057962D01*
X0010843Y0058087D01*
X0097457Y0058087D02*
X0097459Y0058212D01*
X0097465Y0058337D01*
X0097475Y0058461D01*
X0097489Y0058585D01*
X0097506Y0058709D01*
X0097528Y0058832D01*
X0097554Y0058954D01*
X0097583Y0059076D01*
X0097616Y0059196D01*
X0097654Y0059315D01*
X0097694Y0059434D01*
X0097739Y0059550D01*
X0097787Y0059665D01*
X0097839Y0059779D01*
X0097895Y0059891D01*
X0097954Y0060001D01*
X0098016Y0060109D01*
X0098082Y0060216D01*
X0098151Y0060320D01*
X0098224Y0060421D01*
X0098299Y0060521D01*
X0098378Y0060618D01*
X0098460Y0060712D01*
X0098545Y0060804D01*
X0098632Y0060893D01*
X0098723Y0060979D01*
X0098816Y0061062D01*
X0098912Y0061143D01*
X0099010Y0061220D01*
X0099110Y0061294D01*
X0099213Y0061365D01*
X0099318Y0061432D01*
X0099426Y0061497D01*
X0099535Y0061557D01*
X0099646Y0061615D01*
X0099759Y0061668D01*
X0099873Y0061718D01*
X0099989Y0061765D01*
X0100106Y0061807D01*
X0100225Y0061846D01*
X0100345Y0061882D01*
X0100466Y0061913D01*
X0100588Y0061941D01*
X0100710Y0061964D01*
X0100834Y0061984D01*
X0100958Y0062000D01*
X0101082Y0062012D01*
X0101207Y0062020D01*
X0101332Y0062024D01*
X0101456Y0062024D01*
X0101581Y0062020D01*
X0101706Y0062012D01*
X0101830Y0062000D01*
X0101954Y0061984D01*
X0102078Y0061964D01*
X0102200Y0061941D01*
X0102322Y0061913D01*
X0102443Y0061882D01*
X0102563Y0061846D01*
X0102682Y0061807D01*
X0102799Y0061765D01*
X0102915Y0061718D01*
X0103029Y0061668D01*
X0103142Y0061615D01*
X0103253Y0061557D01*
X0103363Y0061497D01*
X0103470Y0061432D01*
X0103575Y0061365D01*
X0103678Y0061294D01*
X0103778Y0061220D01*
X0103876Y0061143D01*
X0103972Y0061062D01*
X0104065Y0060979D01*
X0104156Y0060893D01*
X0104243Y0060804D01*
X0104328Y0060712D01*
X0104410Y0060618D01*
X0104489Y0060521D01*
X0104564Y0060421D01*
X0104637Y0060320D01*
X0104706Y0060216D01*
X0104772Y0060109D01*
X0104834Y0060001D01*
X0104893Y0059891D01*
X0104949Y0059779D01*
X0105001Y0059665D01*
X0105049Y0059550D01*
X0105094Y0059434D01*
X0105134Y0059315D01*
X0105172Y0059196D01*
X0105205Y0059076D01*
X0105234Y0058954D01*
X0105260Y0058832D01*
X0105282Y0058709D01*
X0105299Y0058585D01*
X0105313Y0058461D01*
X0105323Y0058337D01*
X0105329Y0058212D01*
X0105331Y0058087D01*
X0105329Y0057962D01*
X0105323Y0057837D01*
X0105313Y0057713D01*
X0105299Y0057589D01*
X0105282Y0057465D01*
X0105260Y0057342D01*
X0105234Y0057220D01*
X0105205Y0057098D01*
X0105172Y0056978D01*
X0105134Y0056859D01*
X0105094Y0056740D01*
X0105049Y0056624D01*
X0105001Y0056509D01*
X0104949Y0056395D01*
X0104893Y0056283D01*
X0104834Y0056173D01*
X0104772Y0056065D01*
X0104706Y0055958D01*
X0104637Y0055854D01*
X0104564Y0055753D01*
X0104489Y0055653D01*
X0104410Y0055556D01*
X0104328Y0055462D01*
X0104243Y0055370D01*
X0104156Y0055281D01*
X0104065Y0055195D01*
X0103972Y0055112D01*
X0103876Y0055031D01*
X0103778Y0054954D01*
X0103678Y0054880D01*
X0103575Y0054809D01*
X0103470Y0054742D01*
X0103362Y0054677D01*
X0103253Y0054617D01*
X0103142Y0054559D01*
X0103029Y0054506D01*
X0102915Y0054456D01*
X0102799Y0054409D01*
X0102682Y0054367D01*
X0102563Y0054328D01*
X0102443Y0054292D01*
X0102322Y0054261D01*
X0102200Y0054233D01*
X0102078Y0054210D01*
X0101954Y0054190D01*
X0101830Y0054174D01*
X0101706Y0054162D01*
X0101581Y0054154D01*
X0101456Y0054150D01*
X0101332Y0054150D01*
X0101207Y0054154D01*
X0101082Y0054162D01*
X0100958Y0054174D01*
X0100834Y0054190D01*
X0100710Y0054210D01*
X0100588Y0054233D01*
X0100466Y0054261D01*
X0100345Y0054292D01*
X0100225Y0054328D01*
X0100106Y0054367D01*
X0099989Y0054409D01*
X0099873Y0054456D01*
X0099759Y0054506D01*
X0099646Y0054559D01*
X0099535Y0054617D01*
X0099425Y0054677D01*
X0099318Y0054742D01*
X0099213Y0054809D01*
X0099110Y0054880D01*
X0099010Y0054954D01*
X0098912Y0055031D01*
X0098816Y0055112D01*
X0098723Y0055195D01*
X0098632Y0055281D01*
X0098545Y0055370D01*
X0098460Y0055462D01*
X0098378Y0055556D01*
X0098299Y0055653D01*
X0098224Y0055753D01*
X0098151Y0055854D01*
X0098082Y0055958D01*
X0098016Y0056065D01*
X0097954Y0056173D01*
X0097895Y0056283D01*
X0097839Y0056395D01*
X0097787Y0056509D01*
X0097739Y0056624D01*
X0097694Y0056740D01*
X0097654Y0056859D01*
X0097616Y0056978D01*
X0097583Y0057098D01*
X0097554Y0057220D01*
X0097528Y0057342D01*
X0097506Y0057465D01*
X0097489Y0057589D01*
X0097475Y0057713D01*
X0097465Y0057837D01*
X0097459Y0057962D01*
X0097457Y0058087D01*
D11*
X0098035Y0024280D02*
X0102233Y0020082D01*
X0096406Y0014137D02*
X0092208Y0018335D01*
X0017745Y0092051D02*
X0013547Y0096249D01*
X0020043Y0102863D02*
X0024241Y0098665D01*
D12*
X0047457Y0058087D03*
X0065961Y0058087D03*
D13*
X0059543Y0058087D01*
X0057654Y0059976D01*
X0057654Y0070252D01*
X0061133Y0073786D02*
X0110189Y0073786D01*
X0110189Y0071819D02*
X0062372Y0071819D01*
X0062613Y0071238D02*
X0061858Y0073061D01*
X0060463Y0074456D01*
X0058640Y0075211D01*
X0056667Y0075211D01*
X0054844Y0074456D01*
X0053449Y0073061D01*
X0052694Y0071238D01*
X0052694Y0069266D01*
X0053449Y0067443D01*
X0054085Y0066807D01*
X0054085Y0059267D01*
X0054628Y0057955D01*
X0055632Y0056951D01*
X0057522Y0055061D01*
X0058833Y0054518D01*
X0061408Y0054518D01*
X0061408Y0048616D01*
X0061801Y0047666D01*
X0062528Y0046939D01*
X0063478Y0046546D01*
X0068443Y0046546D01*
X0069393Y0046939D01*
X0070120Y0047666D01*
X0070513Y0048616D01*
X0070513Y0067557D01*
X0070120Y0068507D01*
X0069393Y0069234D01*
X0068443Y0069628D01*
X0063478Y0069628D01*
X0062613Y0069269D01*
X0062613Y0071238D01*
X0062613Y0069851D02*
X0110189Y0069851D01*
X0110189Y0067884D02*
X0070378Y0067884D01*
X0070513Y0065917D02*
X0096987Y0065917D01*
X0096340Y0065650D02*
X0093831Y0063140D01*
X0092472Y0059861D01*
X0092472Y0056312D01*
X0093831Y0053033D01*
X0096340Y0050524D01*
X0099619Y0049165D01*
X0103168Y0049165D01*
X0106447Y0050524D01*
X0108957Y0053033D01*
X0110189Y0056008D01*
X0110189Y0005984D01*
X0005984Y0005984D01*
X0005984Y0056008D01*
X0007216Y0053033D01*
X0009726Y0050524D01*
X0013005Y0049165D01*
X0016554Y0049165D01*
X0019833Y0050524D01*
X0022343Y0053033D01*
X0023701Y0056312D01*
X0023701Y0059861D01*
X0022343Y0063140D01*
X0019833Y0065650D01*
X0016554Y0067008D01*
X0013005Y0067008D01*
X0009726Y0065650D01*
X0007216Y0063140D01*
X0005984Y0060165D01*
X0005984Y0110189D01*
X0110189Y0110189D01*
X0110189Y0060165D01*
X0108957Y0063140D01*
X0106447Y0065650D01*
X0103168Y0067008D01*
X0099619Y0067008D01*
X0096340Y0065650D01*
X0094641Y0063950D02*
X0070513Y0063950D01*
X0070513Y0061983D02*
X0093352Y0061983D01*
X0092537Y0060016D02*
X0070513Y0060016D01*
X0070513Y0058049D02*
X0092472Y0058049D01*
X0092568Y0056082D02*
X0070513Y0056082D01*
X0070513Y0054115D02*
X0093382Y0054115D01*
X0094715Y0052148D02*
X0070513Y0052148D01*
X0070513Y0050181D02*
X0097166Y0050181D01*
X0105621Y0050181D02*
X0110189Y0050181D01*
X0110189Y0052148D02*
X0108072Y0052148D01*
X0109405Y0054115D02*
X0110189Y0054115D01*
X0110189Y0048214D02*
X0070347Y0048214D01*
X0061574Y0048214D02*
X0051188Y0048214D01*
X0051274Y0048364D02*
X0051409Y0048869D01*
X0051409Y0058087D01*
X0051409Y0067305D01*
X0051274Y0067809D01*
X0051013Y0068262D01*
X0050644Y0068631D01*
X0050191Y0068892D01*
X0049686Y0069028D01*
X0047457Y0069028D01*
X0047457Y0058087D01*
X0047457Y0058087D01*
X0051409Y0058087D01*
X0047457Y0058087D01*
X0047457Y0058087D01*
X0047457Y0069028D01*
X0045227Y0069028D01*
X0044722Y0068892D01*
X0044270Y0068631D01*
X0043900Y0068262D01*
X0043639Y0067809D01*
X0043504Y0067305D01*
X0043504Y0058087D01*
X0047457Y0058087D01*
X0047457Y0058087D01*
X0047457Y0058086D02*
X0047457Y0047146D01*
X0049686Y0047146D01*
X0050191Y0047281D01*
X0050644Y0047542D01*
X0051013Y0047912D01*
X0051274Y0048364D01*
X0051409Y0050181D02*
X0061408Y0050181D01*
X0061408Y0052148D02*
X0051409Y0052148D01*
X0051409Y0054115D02*
X0061408Y0054115D01*
X0056501Y0056082D02*
X0051409Y0056082D01*
X0051409Y0058049D02*
X0054589Y0058049D01*
X0054085Y0060016D02*
X0051409Y0060016D01*
X0051409Y0061983D02*
X0054085Y0061983D01*
X0054085Y0063950D02*
X0051409Y0063950D01*
X0051409Y0065917D02*
X0054085Y0065917D01*
X0053267Y0067884D02*
X0051231Y0067884D01*
X0052694Y0069851D02*
X0005984Y0069851D01*
X0005984Y0067884D02*
X0043683Y0067884D01*
X0043504Y0065917D02*
X0019187Y0065917D01*
X0021532Y0063950D02*
X0043504Y0063950D01*
X0043504Y0061983D02*
X0022822Y0061983D01*
X0023636Y0060016D02*
X0043504Y0060016D01*
X0043504Y0058087D02*
X0043504Y0048869D01*
X0043639Y0048364D01*
X0043900Y0047912D01*
X0044270Y0047542D01*
X0044722Y0047281D01*
X0045227Y0047146D01*
X0047457Y0047146D01*
X0047457Y0058086D01*
X0047457Y0058086D01*
X0047457Y0058087D02*
X0043504Y0058087D01*
X0043504Y0058049D02*
X0023701Y0058049D01*
X0023606Y0056082D02*
X0043504Y0056082D01*
X0043504Y0054115D02*
X0022791Y0054115D01*
X0021458Y0052148D02*
X0043504Y0052148D01*
X0043504Y0050181D02*
X0019007Y0050181D01*
X0010552Y0050181D02*
X0005984Y0050181D01*
X0005984Y0052148D02*
X0008101Y0052148D01*
X0006768Y0054115D02*
X0005984Y0054115D01*
X0005984Y0048214D02*
X0043726Y0048214D01*
X0047457Y0048214D02*
X0047457Y0048214D01*
X0047457Y0050181D02*
X0047457Y0050181D01*
X0047457Y0052148D02*
X0047457Y0052148D01*
X0047457Y0054115D02*
X0047457Y0054115D01*
X0047457Y0056082D02*
X0047457Y0056082D01*
X0047457Y0058049D02*
X0047457Y0058049D01*
X0047457Y0060016D02*
X0047457Y0060016D01*
X0047457Y0061983D02*
X0047457Y0061983D01*
X0047457Y0063950D02*
X0047457Y0063950D01*
X0047457Y0065917D02*
X0047457Y0065917D01*
X0047457Y0067884D02*
X0047457Y0067884D01*
X0052935Y0071819D02*
X0005984Y0071819D01*
X0005984Y0073786D02*
X0054174Y0073786D01*
X0028948Y0095519D02*
X0029794Y0097560D01*
X0029794Y0099769D01*
X0028948Y0101810D01*
X0023188Y0107570D01*
X0021147Y0108416D01*
X0018938Y0108416D01*
X0016897Y0107570D01*
X0015335Y0106008D01*
X0014490Y0103967D01*
X0014490Y0101758D01*
X0014781Y0101055D01*
X0014706Y0101079D01*
X0013936Y0101201D01*
X0013157Y0101201D01*
X0012387Y0101079D01*
X0011645Y0100839D01*
X0010951Y0100485D01*
X0010320Y0100026D01*
X0010045Y0099751D01*
X0015646Y0094150D01*
X0015646Y0094150D01*
X0021247Y0088548D01*
X0015646Y0094149D01*
X0015646Y0094150D01*
X0010044Y0099751D01*
X0009769Y0099475D01*
X0009311Y0098844D01*
X0008957Y0098150D01*
X0008716Y0097408D01*
X0008594Y0096638D01*
X0008594Y0095859D01*
X0008716Y0095089D01*
X0008957Y0094347D01*
X0009311Y0093653D01*
X0009769Y0093022D01*
X0012143Y0090648D01*
X0015646Y0094150D01*
X0015646Y0094149D01*
X0012144Y0090647D01*
X0014518Y0088273D01*
X0015149Y0087815D01*
X0015844Y0087461D01*
X0016585Y0087220D01*
X0017355Y0087098D01*
X0018134Y0087098D01*
X0018904Y0087220D01*
X0019646Y0087461D01*
X0020341Y0087815D01*
X0020971Y0088273D01*
X0021247Y0088548D01*
X0021522Y0088824D01*
X0021981Y0089455D01*
X0022335Y0090149D01*
X0022576Y0090891D01*
X0022697Y0091661D01*
X0022697Y0092440D01*
X0022576Y0093210D01*
X0022525Y0093365D01*
X0023136Y0093112D01*
X0025345Y0093112D01*
X0027386Y0093957D01*
X0028948Y0095519D01*
X0028852Y0095423D02*
X0110189Y0095423D01*
X0110189Y0093456D02*
X0026175Y0093456D01*
X0022670Y0091489D02*
X0110189Y0091489D01*
X0110189Y0089522D02*
X0022015Y0089522D01*
X0020274Y0089522D02*
X0020274Y0089522D01*
X0018307Y0091489D02*
X0018307Y0091489D01*
X0016340Y0093456D02*
X0016339Y0093456D01*
X0014952Y0093456D02*
X0014952Y0093456D01*
X0014372Y0095423D02*
X0014373Y0095423D01*
X0012406Y0097390D02*
X0012405Y0097390D01*
X0010438Y0099357D02*
X0010439Y0099357D01*
X0009683Y0099357D02*
X0005984Y0099357D01*
X0005984Y0097390D02*
X0008713Y0097390D01*
X0008663Y0095423D02*
X0005984Y0095423D01*
X0005984Y0093456D02*
X0009454Y0093456D01*
X0011302Y0091489D02*
X0005984Y0091489D01*
X0005984Y0089522D02*
X0013269Y0089522D01*
X0012985Y0091489D02*
X0012985Y0091489D01*
X0015659Y0087555D02*
X0005984Y0087555D01*
X0005984Y0085588D02*
X0110189Y0085588D01*
X0110189Y0087555D02*
X0019830Y0087555D01*
X0029723Y0097390D02*
X0110189Y0097390D01*
X0110189Y0099357D02*
X0029794Y0099357D01*
X0029150Y0101324D02*
X0110189Y0101324D01*
X0110189Y0103291D02*
X0027468Y0103291D01*
X0025501Y0105258D02*
X0110189Y0105258D01*
X0110189Y0107225D02*
X0023534Y0107225D01*
X0016552Y0107225D02*
X0005984Y0107225D01*
X0005984Y0109192D02*
X0110189Y0109192D01*
X0110189Y0083621D02*
X0005984Y0083621D01*
X0005984Y0081654D02*
X0110189Y0081654D01*
X0110189Y0079687D02*
X0005984Y0079687D01*
X0005984Y0077720D02*
X0110189Y0077720D01*
X0110189Y0075753D02*
X0005984Y0075753D01*
X0005984Y0065917D02*
X0010373Y0065917D01*
X0008027Y0063950D02*
X0005984Y0063950D01*
X0005984Y0061983D02*
X0006737Y0061983D01*
X0005984Y0046247D02*
X0110189Y0046247D01*
X0110189Y0044280D02*
X0005984Y0044280D01*
X0005984Y0042313D02*
X0110189Y0042313D01*
X0110189Y0040346D02*
X0005984Y0040346D01*
X0005984Y0038379D02*
X0110189Y0038379D01*
X0110189Y0036412D02*
X0005984Y0036412D01*
X0005984Y0034445D02*
X0110189Y0034445D01*
X0110189Y0032478D02*
X0005984Y0032478D01*
X0005984Y0030511D02*
X0110189Y0030511D01*
X0110189Y0028544D02*
X0100576Y0028544D01*
X0100631Y0028516D02*
X0099936Y0028870D01*
X0099195Y0029111D01*
X0098425Y0029233D01*
X0097645Y0029233D01*
X0096875Y0029111D01*
X0096134Y0028870D01*
X0095439Y0028516D01*
X0094808Y0028058D01*
X0094533Y0027782D01*
X0094257Y0027507D01*
X0093799Y0026876D01*
X0093445Y0026181D01*
X0093204Y0025440D01*
X0093082Y0024670D01*
X0093082Y0023890D01*
X0093082Y0023888D01*
X0091104Y0023888D01*
X0089063Y0023043D01*
X0087501Y0021481D01*
X0086655Y0019440D01*
X0086655Y0017231D01*
X0087501Y0015190D01*
X0093261Y0009430D01*
X0095302Y0008584D01*
X0097511Y0008584D01*
X0099552Y0009430D01*
X0101114Y0010992D01*
X0101959Y0013033D01*
X0101959Y0015129D01*
X0102623Y0015129D01*
X0103393Y0015251D01*
X0104134Y0015492D01*
X0104829Y0015846D01*
X0105459Y0016304D01*
X0105735Y0016580D01*
X0106011Y0016856D01*
X0106469Y0017486D01*
X0106823Y0018181D01*
X0107064Y0018922D01*
X0107186Y0019692D01*
X0107186Y0020472D01*
X0107064Y0021242D01*
X0106823Y0021983D01*
X0106469Y0022678D01*
X0106011Y0023309D01*
X0103636Y0025683D01*
X0100134Y0022181D01*
X0105735Y0016580D01*
X0100134Y0022181D01*
X0100134Y0022181D01*
X0100134Y0022181D01*
X0103636Y0025683D01*
X0101261Y0028058D01*
X0100631Y0028516D01*
X0102742Y0026577D02*
X0110189Y0026577D01*
X0110189Y0024610D02*
X0104709Y0024610D01*
X0102563Y0024610D02*
X0102563Y0024610D01*
X0100596Y0022643D02*
X0100596Y0022643D01*
X0100134Y0022181D02*
X0100134Y0022181D01*
X0094533Y0027782D01*
X0100134Y0022181D01*
X0099672Y0022643D02*
X0099672Y0022643D01*
X0101639Y0020676D02*
X0101639Y0020676D01*
X0103606Y0018709D02*
X0103606Y0018709D01*
X0105573Y0016742D02*
X0105573Y0016742D01*
X0105897Y0016742D02*
X0110189Y0016742D01*
X0110189Y0018709D02*
X0106994Y0018709D01*
X0107153Y0020676D02*
X0110189Y0020676D01*
X0110189Y0022643D02*
X0106487Y0022643D01*
X0110189Y0014775D02*
X0101959Y0014775D01*
X0101866Y0012808D02*
X0110189Y0012808D01*
X0110189Y0010841D02*
X0100963Y0010841D01*
X0098210Y0008874D02*
X0110189Y0008874D01*
X0110189Y0006907D02*
X0005984Y0006907D01*
X0005984Y0008874D02*
X0094602Y0008874D01*
X0091849Y0010841D02*
X0005984Y0010841D01*
X0005984Y0012808D02*
X0089882Y0012808D01*
X0087915Y0014775D02*
X0005984Y0014775D01*
X0005984Y0016742D02*
X0086858Y0016742D01*
X0086655Y0018709D02*
X0005984Y0018709D01*
X0005984Y0020676D02*
X0087167Y0020676D01*
X0088663Y0022643D02*
X0005984Y0022643D01*
X0005984Y0024610D02*
X0093082Y0024610D01*
X0093647Y0026577D02*
X0005984Y0026577D01*
X0005984Y0028544D02*
X0095494Y0028544D01*
X0095738Y0026577D02*
X0095738Y0026577D01*
X0097705Y0024610D02*
X0097705Y0024610D01*
X0109436Y0061983D02*
X0110189Y0061983D01*
X0110189Y0063950D02*
X0108146Y0063950D01*
X0110189Y0065917D02*
X0105801Y0065917D01*
X0014670Y0101324D02*
X0005984Y0101324D01*
X0005984Y0103291D02*
X0014490Y0103291D01*
X0015024Y0105258D02*
X0005984Y0105258D01*
D14*
X0009740Y0106000D03*
X0010449Y0084425D03*
X0020646Y0073165D03*
X0024268Y0084071D03*
X0034976Y0078126D03*
X0030252Y0060724D03*
X0014465Y0041276D03*
X0014307Y0025528D03*
X0022732Y0015882D03*
X0033913Y0021827D03*
X0049661Y0035685D03*
X0052496Y0017614D03*
X0072457Y0016079D03*
X0072417Y0035173D03*
X0085724Y0043598D03*
X0083638Y0055331D03*
X0082929Y0067772D03*
X0094661Y0076709D03*
X0101118Y0085173D03*
X0094937Y0097102D03*
X0084701Y0105291D03*
X0070882Y0093520D03*
X0062811Y0104110D03*
X0048441Y0099346D03*
X0032339Y0105291D03*
X0070685Y0073362D03*
X0082220Y0086039D03*
X0106039Y0106512D03*
X0101669Y0040252D03*
X0106039Y0010291D03*
X0009740Y0009386D03*
D15*
X0057654Y0070252D03*
M02*
