G75*
%MOIN*%
%OFA0B0*%
%FSLAX25Y25*%
%IPPOS*%
%LPD*%
%AMOC8*
5,1,8,0,0,1.08239X$1,22.5*
%
%ADD10C,0.00000*%
%ADD11C,0.00300*%
D10*
X0001000Y0001000D02*
X0001000Y0115173D01*
X0115173Y0115173D01*
X0115173Y0001000D01*
X0001000Y0001000D01*
X0010843Y0058087D02*
X0010845Y0058212D01*
X0010851Y0058337D01*
X0010861Y0058461D01*
X0010875Y0058585D01*
X0010892Y0058709D01*
X0010914Y0058832D01*
X0010940Y0058954D01*
X0010969Y0059076D01*
X0011002Y0059196D01*
X0011040Y0059315D01*
X0011080Y0059434D01*
X0011125Y0059550D01*
X0011173Y0059665D01*
X0011225Y0059779D01*
X0011281Y0059891D01*
X0011340Y0060001D01*
X0011402Y0060109D01*
X0011468Y0060216D01*
X0011537Y0060320D01*
X0011610Y0060421D01*
X0011685Y0060521D01*
X0011764Y0060618D01*
X0011846Y0060712D01*
X0011931Y0060804D01*
X0012018Y0060893D01*
X0012109Y0060979D01*
X0012202Y0061062D01*
X0012298Y0061143D01*
X0012396Y0061220D01*
X0012496Y0061294D01*
X0012599Y0061365D01*
X0012704Y0061432D01*
X0012812Y0061497D01*
X0012921Y0061557D01*
X0013032Y0061615D01*
X0013145Y0061668D01*
X0013259Y0061718D01*
X0013375Y0061765D01*
X0013492Y0061807D01*
X0013611Y0061846D01*
X0013731Y0061882D01*
X0013852Y0061913D01*
X0013974Y0061941D01*
X0014096Y0061964D01*
X0014220Y0061984D01*
X0014344Y0062000D01*
X0014468Y0062012D01*
X0014593Y0062020D01*
X0014718Y0062024D01*
X0014842Y0062024D01*
X0014967Y0062020D01*
X0015092Y0062012D01*
X0015216Y0062000D01*
X0015340Y0061984D01*
X0015464Y0061964D01*
X0015586Y0061941D01*
X0015708Y0061913D01*
X0015829Y0061882D01*
X0015949Y0061846D01*
X0016068Y0061807D01*
X0016185Y0061765D01*
X0016301Y0061718D01*
X0016415Y0061668D01*
X0016528Y0061615D01*
X0016639Y0061557D01*
X0016749Y0061497D01*
X0016856Y0061432D01*
X0016961Y0061365D01*
X0017064Y0061294D01*
X0017164Y0061220D01*
X0017262Y0061143D01*
X0017358Y0061062D01*
X0017451Y0060979D01*
X0017542Y0060893D01*
X0017629Y0060804D01*
X0017714Y0060712D01*
X0017796Y0060618D01*
X0017875Y0060521D01*
X0017950Y0060421D01*
X0018023Y0060320D01*
X0018092Y0060216D01*
X0018158Y0060109D01*
X0018220Y0060001D01*
X0018279Y0059891D01*
X0018335Y0059779D01*
X0018387Y0059665D01*
X0018435Y0059550D01*
X0018480Y0059434D01*
X0018520Y0059315D01*
X0018558Y0059196D01*
X0018591Y0059076D01*
X0018620Y0058954D01*
X0018646Y0058832D01*
X0018668Y0058709D01*
X0018685Y0058585D01*
X0018699Y0058461D01*
X0018709Y0058337D01*
X0018715Y0058212D01*
X0018717Y0058087D01*
X0018715Y0057962D01*
X0018709Y0057837D01*
X0018699Y0057713D01*
X0018685Y0057589D01*
X0018668Y0057465D01*
X0018646Y0057342D01*
X0018620Y0057220D01*
X0018591Y0057098D01*
X0018558Y0056978D01*
X0018520Y0056859D01*
X0018480Y0056740D01*
X0018435Y0056624D01*
X0018387Y0056509D01*
X0018335Y0056395D01*
X0018279Y0056283D01*
X0018220Y0056173D01*
X0018158Y0056065D01*
X0018092Y0055958D01*
X0018023Y0055854D01*
X0017950Y0055753D01*
X0017875Y0055653D01*
X0017796Y0055556D01*
X0017714Y0055462D01*
X0017629Y0055370D01*
X0017542Y0055281D01*
X0017451Y0055195D01*
X0017358Y0055112D01*
X0017262Y0055031D01*
X0017164Y0054954D01*
X0017064Y0054880D01*
X0016961Y0054809D01*
X0016856Y0054742D01*
X0016748Y0054677D01*
X0016639Y0054617D01*
X0016528Y0054559D01*
X0016415Y0054506D01*
X0016301Y0054456D01*
X0016185Y0054409D01*
X0016068Y0054367D01*
X0015949Y0054328D01*
X0015829Y0054292D01*
X0015708Y0054261D01*
X0015586Y0054233D01*
X0015464Y0054210D01*
X0015340Y0054190D01*
X0015216Y0054174D01*
X0015092Y0054162D01*
X0014967Y0054154D01*
X0014842Y0054150D01*
X0014718Y0054150D01*
X0014593Y0054154D01*
X0014468Y0054162D01*
X0014344Y0054174D01*
X0014220Y0054190D01*
X0014096Y0054210D01*
X0013974Y0054233D01*
X0013852Y0054261D01*
X0013731Y0054292D01*
X0013611Y0054328D01*
X0013492Y0054367D01*
X0013375Y0054409D01*
X0013259Y0054456D01*
X0013145Y0054506D01*
X0013032Y0054559D01*
X0012921Y0054617D01*
X0012811Y0054677D01*
X0012704Y0054742D01*
X0012599Y0054809D01*
X0012496Y0054880D01*
X0012396Y0054954D01*
X0012298Y0055031D01*
X0012202Y0055112D01*
X0012109Y0055195D01*
X0012018Y0055281D01*
X0011931Y0055370D01*
X0011846Y0055462D01*
X0011764Y0055556D01*
X0011685Y0055653D01*
X0011610Y0055753D01*
X0011537Y0055854D01*
X0011468Y0055958D01*
X0011402Y0056065D01*
X0011340Y0056173D01*
X0011281Y0056283D01*
X0011225Y0056395D01*
X0011173Y0056509D01*
X0011125Y0056624D01*
X0011080Y0056740D01*
X0011040Y0056859D01*
X0011002Y0056978D01*
X0010969Y0057098D01*
X0010940Y0057220D01*
X0010914Y0057342D01*
X0010892Y0057465D01*
X0010875Y0057589D01*
X0010861Y0057713D01*
X0010851Y0057837D01*
X0010845Y0057962D01*
X0010843Y0058087D01*
X0097457Y0058087D02*
X0097459Y0058212D01*
X0097465Y0058337D01*
X0097475Y0058461D01*
X0097489Y0058585D01*
X0097506Y0058709D01*
X0097528Y0058832D01*
X0097554Y0058954D01*
X0097583Y0059076D01*
X0097616Y0059196D01*
X0097654Y0059315D01*
X0097694Y0059434D01*
X0097739Y0059550D01*
X0097787Y0059665D01*
X0097839Y0059779D01*
X0097895Y0059891D01*
X0097954Y0060001D01*
X0098016Y0060109D01*
X0098082Y0060216D01*
X0098151Y0060320D01*
X0098224Y0060421D01*
X0098299Y0060521D01*
X0098378Y0060618D01*
X0098460Y0060712D01*
X0098545Y0060804D01*
X0098632Y0060893D01*
X0098723Y0060979D01*
X0098816Y0061062D01*
X0098912Y0061143D01*
X0099010Y0061220D01*
X0099110Y0061294D01*
X0099213Y0061365D01*
X0099318Y0061432D01*
X0099426Y0061497D01*
X0099535Y0061557D01*
X0099646Y0061615D01*
X0099759Y0061668D01*
X0099873Y0061718D01*
X0099989Y0061765D01*
X0100106Y0061807D01*
X0100225Y0061846D01*
X0100345Y0061882D01*
X0100466Y0061913D01*
X0100588Y0061941D01*
X0100710Y0061964D01*
X0100834Y0061984D01*
X0100958Y0062000D01*
X0101082Y0062012D01*
X0101207Y0062020D01*
X0101332Y0062024D01*
X0101456Y0062024D01*
X0101581Y0062020D01*
X0101706Y0062012D01*
X0101830Y0062000D01*
X0101954Y0061984D01*
X0102078Y0061964D01*
X0102200Y0061941D01*
X0102322Y0061913D01*
X0102443Y0061882D01*
X0102563Y0061846D01*
X0102682Y0061807D01*
X0102799Y0061765D01*
X0102915Y0061718D01*
X0103029Y0061668D01*
X0103142Y0061615D01*
X0103253Y0061557D01*
X0103363Y0061497D01*
X0103470Y0061432D01*
X0103575Y0061365D01*
X0103678Y0061294D01*
X0103778Y0061220D01*
X0103876Y0061143D01*
X0103972Y0061062D01*
X0104065Y0060979D01*
X0104156Y0060893D01*
X0104243Y0060804D01*
X0104328Y0060712D01*
X0104410Y0060618D01*
X0104489Y0060521D01*
X0104564Y0060421D01*
X0104637Y0060320D01*
X0104706Y0060216D01*
X0104772Y0060109D01*
X0104834Y0060001D01*
X0104893Y0059891D01*
X0104949Y0059779D01*
X0105001Y0059665D01*
X0105049Y0059550D01*
X0105094Y0059434D01*
X0105134Y0059315D01*
X0105172Y0059196D01*
X0105205Y0059076D01*
X0105234Y0058954D01*
X0105260Y0058832D01*
X0105282Y0058709D01*
X0105299Y0058585D01*
X0105313Y0058461D01*
X0105323Y0058337D01*
X0105329Y0058212D01*
X0105331Y0058087D01*
X0105329Y0057962D01*
X0105323Y0057837D01*
X0105313Y0057713D01*
X0105299Y0057589D01*
X0105282Y0057465D01*
X0105260Y0057342D01*
X0105234Y0057220D01*
X0105205Y0057098D01*
X0105172Y0056978D01*
X0105134Y0056859D01*
X0105094Y0056740D01*
X0105049Y0056624D01*
X0105001Y0056509D01*
X0104949Y0056395D01*
X0104893Y0056283D01*
X0104834Y0056173D01*
X0104772Y0056065D01*
X0104706Y0055958D01*
X0104637Y0055854D01*
X0104564Y0055753D01*
X0104489Y0055653D01*
X0104410Y0055556D01*
X0104328Y0055462D01*
X0104243Y0055370D01*
X0104156Y0055281D01*
X0104065Y0055195D01*
X0103972Y0055112D01*
X0103876Y0055031D01*
X0103778Y0054954D01*
X0103678Y0054880D01*
X0103575Y0054809D01*
X0103470Y0054742D01*
X0103362Y0054677D01*
X0103253Y0054617D01*
X0103142Y0054559D01*
X0103029Y0054506D01*
X0102915Y0054456D01*
X0102799Y0054409D01*
X0102682Y0054367D01*
X0102563Y0054328D01*
X0102443Y0054292D01*
X0102322Y0054261D01*
X0102200Y0054233D01*
X0102078Y0054210D01*
X0101954Y0054190D01*
X0101830Y0054174D01*
X0101706Y0054162D01*
X0101581Y0054154D01*
X0101456Y0054150D01*
X0101332Y0054150D01*
X0101207Y0054154D01*
X0101082Y0054162D01*
X0100958Y0054174D01*
X0100834Y0054190D01*
X0100710Y0054210D01*
X0100588Y0054233D01*
X0100466Y0054261D01*
X0100345Y0054292D01*
X0100225Y0054328D01*
X0100106Y0054367D01*
X0099989Y0054409D01*
X0099873Y0054456D01*
X0099759Y0054506D01*
X0099646Y0054559D01*
X0099535Y0054617D01*
X0099425Y0054677D01*
X0099318Y0054742D01*
X0099213Y0054809D01*
X0099110Y0054880D01*
X0099010Y0054954D01*
X0098912Y0055031D01*
X0098816Y0055112D01*
X0098723Y0055195D01*
X0098632Y0055281D01*
X0098545Y0055370D01*
X0098460Y0055462D01*
X0098378Y0055556D01*
X0098299Y0055653D01*
X0098224Y0055753D01*
X0098151Y0055854D01*
X0098082Y0055958D01*
X0098016Y0056065D01*
X0097954Y0056173D01*
X0097895Y0056283D01*
X0097839Y0056395D01*
X0097787Y0056509D01*
X0097739Y0056624D01*
X0097694Y0056740D01*
X0097654Y0056859D01*
X0097616Y0056978D01*
X0097583Y0057098D01*
X0097554Y0057220D01*
X0097528Y0057342D01*
X0097506Y0057465D01*
X0097489Y0057589D01*
X0097475Y0057713D01*
X0097465Y0057837D01*
X0097459Y0057962D01*
X0097457Y0058087D01*
D11*
X0096898Y0033304D02*
X0098349Y0033304D01*
X0098349Y0030402D01*
X0096898Y0030402D01*
X0096414Y0030886D01*
X0096414Y0032821D01*
X0096898Y0033304D01*
X0099361Y0033304D02*
X0099361Y0030402D01*
X0101296Y0033304D01*
X0101296Y0030402D01*
X0102307Y0030886D02*
X0102307Y0031853D01*
X0103275Y0031853D01*
X0104242Y0030886D02*
X0104242Y0032821D01*
X0103758Y0033304D01*
X0102791Y0033304D01*
X0102307Y0032821D01*
X0102307Y0030886D02*
X0102791Y0030402D01*
X0103758Y0030402D01*
X0104242Y0030886D01*
X0106221Y0030402D02*
X0106221Y0033304D01*
X0105254Y0033304D02*
X0107189Y0033304D01*
X0101283Y0009722D02*
X0099348Y0009722D01*
X0100316Y0009722D02*
X0100316Y0006819D01*
X0098337Y0007787D02*
X0098337Y0009722D01*
X0098337Y0007787D02*
X0097369Y0006819D01*
X0096402Y0007787D01*
X0096402Y0009722D01*
X0095390Y0009238D02*
X0095390Y0007303D01*
X0094906Y0006819D01*
X0093939Y0006819D01*
X0093455Y0007303D01*
X0092444Y0007303D02*
X0091960Y0006819D01*
X0090992Y0006819D01*
X0090509Y0007303D01*
X0092444Y0007303D02*
X0092444Y0009238D01*
X0091960Y0009722D01*
X0090992Y0009722D01*
X0090509Y0009238D01*
X0093455Y0009238D02*
X0093939Y0009722D01*
X0094906Y0009722D01*
X0095390Y0009238D01*
X0084984Y0008907D02*
X0083749Y0008907D01*
X0084984Y0007056D02*
X0084984Y0010759D01*
X0082515Y0010759D01*
X0081301Y0010759D02*
X0081301Y0007056D01*
X0078832Y0007056D01*
X0077618Y0007056D02*
X0077618Y0010759D01*
X0076383Y0009524D01*
X0075149Y0010759D01*
X0075149Y0007056D01*
X0072700Y0007056D02*
X0072700Y0010759D01*
X0073934Y0010759D02*
X0071466Y0010759D01*
X0070251Y0010141D02*
X0070251Y0007673D01*
X0069634Y0007056D01*
X0068400Y0007056D01*
X0067783Y0007673D01*
X0067783Y0010141D01*
X0068400Y0010759D01*
X0069634Y0010759D01*
X0070251Y0010141D01*
X0066568Y0008907D02*
X0064099Y0008907D01*
X0062885Y0009524D02*
X0062268Y0008907D01*
X0061033Y0008907D01*
X0060416Y0008290D01*
X0060416Y0007673D01*
X0061033Y0007056D01*
X0062268Y0007056D01*
X0062885Y0007673D01*
X0062885Y0009524D02*
X0062885Y0010141D01*
X0062268Y0010759D01*
X0061033Y0010759D01*
X0060416Y0010141D01*
X0059202Y0010759D02*
X0056733Y0010759D01*
X0057967Y0010759D02*
X0057967Y0007056D01*
X0051836Y0007056D02*
X0049367Y0010759D01*
X0044469Y0010759D02*
X0044469Y0007056D01*
X0042000Y0007056D02*
X0042000Y0010759D01*
X0043235Y0009524D01*
X0044469Y0010759D01*
X0040786Y0009524D02*
X0040786Y0007056D01*
X0040786Y0008907D02*
X0038317Y0008907D01*
X0038317Y0009524D02*
X0038317Y0007056D01*
X0037103Y0007673D02*
X0036486Y0007056D01*
X0035251Y0007056D01*
X0034634Y0007673D01*
X0034634Y0010141D02*
X0035251Y0010759D01*
X0036486Y0010759D01*
X0037103Y0010141D01*
X0037103Y0007673D01*
X0038317Y0009524D02*
X0039552Y0010759D01*
X0040786Y0009524D01*
X0029737Y0009524D02*
X0028502Y0007056D01*
X0027268Y0009524D01*
X0026054Y0009524D02*
X0024819Y0010759D01*
X0024819Y0007056D01*
X0023585Y0007056D02*
X0026054Y0007056D01*
X0022370Y0007056D02*
X0021753Y0007056D01*
X0021753Y0007673D01*
X0022370Y0007673D01*
X0022370Y0007056D01*
X0020529Y0007056D02*
X0018060Y0007056D01*
X0019294Y0007056D02*
X0019294Y0010759D01*
X0020529Y0009524D01*
X0054276Y0042331D02*
X0056211Y0042331D01*
X0055243Y0042331D02*
X0055243Y0045234D01*
X0056211Y0044266D01*
X0057222Y0044750D02*
X0057222Y0042815D01*
X0057706Y0042331D01*
X0059157Y0042331D01*
X0059157Y0045234D01*
X0057706Y0045234D01*
X0057222Y0044750D01*
X0078832Y0010759D02*
X0081301Y0010759D01*
X0081301Y0008907D02*
X0080066Y0008907D01*
X0020878Y0080441D02*
X0019911Y0080441D01*
X0019427Y0080925D01*
X0019427Y0081893D01*
X0020394Y0081893D01*
X0019427Y0082860D02*
X0019911Y0083344D01*
X0020878Y0083344D01*
X0021362Y0082860D01*
X0021362Y0080925D01*
X0020878Y0080441D01*
X0018415Y0080441D02*
X0018415Y0083344D01*
X0016480Y0080441D01*
X0016480Y0083344D01*
X0015469Y0083344D02*
X0014018Y0083344D01*
X0013534Y0082860D01*
X0013534Y0080925D01*
X0014018Y0080441D01*
X0015469Y0080441D01*
X0015469Y0083344D01*
X0015000Y0085241D02*
X0014516Y0085725D01*
X0014516Y0086693D01*
X0015483Y0086693D01*
X0014516Y0087660D02*
X0015000Y0088144D01*
X0015967Y0088144D01*
X0016451Y0087660D01*
X0016451Y0085725D01*
X0015967Y0085241D01*
X0015000Y0085241D01*
X0017448Y0085241D02*
X0018415Y0085241D01*
X0017932Y0085241D02*
X0017932Y0088144D01*
X0018415Y0088144D02*
X0017448Y0088144D01*
X0019427Y0087660D02*
X0019911Y0088144D01*
X0020878Y0088144D01*
X0021362Y0087660D01*
X0021362Y0087176D01*
X0020878Y0086693D01*
X0019911Y0086693D01*
X0019427Y0086209D01*
X0019427Y0085725D01*
X0019911Y0085241D01*
X0020878Y0085241D01*
X0021362Y0085725D01*
X0021345Y0108000D02*
X0022313Y0108000D01*
X0021829Y0108000D02*
X0021829Y0110903D01*
X0022313Y0110903D02*
X0021345Y0110903D01*
X0020349Y0110419D02*
X0020349Y0108484D01*
X0019865Y0108000D01*
X0018897Y0108000D01*
X0018414Y0108484D01*
X0018414Y0109452D01*
X0019381Y0109452D01*
X0018414Y0110419D02*
X0018897Y0110903D01*
X0019865Y0110903D01*
X0020349Y0110419D01*
X0017402Y0109452D02*
X0015467Y0109452D01*
X0016435Y0110419D02*
X0016435Y0108484D01*
X0023324Y0108484D02*
X0023808Y0108000D01*
X0024776Y0108000D01*
X0025259Y0108484D01*
X0024776Y0109452D02*
X0025259Y0109935D01*
X0025259Y0110419D01*
X0024776Y0110903D01*
X0023808Y0110903D01*
X0023324Y0110419D01*
X0023808Y0109452D02*
X0023324Y0108968D01*
X0023324Y0108484D01*
X0023808Y0109452D02*
X0024776Y0109452D01*
M02*
