%
M48
M72
T01C0.0197
T02C0.0315
T03C0.0394
T04C0.0787
%
T01
X974Y939
X2273Y1588
X1431Y2553
X1446Y4128
X3025Y6072
X2065Y7317
X2427Y8407
X3498Y7813
X4844Y9935
X6281Y10411
X7088Y9352
X8222Y8604
X9466Y7671
X10112Y8517
X9494Y9710
X8470Y10529
X10604Y10651
X8293Y6777
X8364Y5533
X8572Y4360
X7242Y3517
X7246Y1608
X5250Y1761
X4966Y3569
X3391Y2183
X7069Y7336
X10167Y4025
X10604Y1029
X3234Y10529
X974Y10600
X1045Y8443
T02
X5765Y7025
T03
X2214Y10076
X1565Y9415
X9431Y1624
X10013Y2218
T04
X10139Y5809
X1478Y5809
M30
