%
M48
M72
T01C0.0197
T02C0.0236
%
T01
X7563Y3501
X8607Y3406
X9351Y4418
X9532Y5493
X12441Y2733
X14044Y4008
X12492Y8445
X13599Y12941
X15036Y11721
X15890Y10292
X15929Y8512
X15859Y6571
X15851Y4733
X10217Y7249
X10170Y8808
X9142Y8875
X7571Y8867
X6748Y8867
X5918Y8867
X5087Y8867
X4256Y8871
X4252Y10571
X5075Y10571
X5902Y10571
X5067Y11434
X4457Y13190
X4583Y14934
X7733Y13256
X7402Y11438
X7402Y10548
X6240Y9753
X5910Y7119
X6733Y7123
X7551Y7123
X6233Y6249
X5898Y5394
X5075Y5394
X4252Y5394
X4622Y4658
X4256Y7123
X5079Y7119
X9240Y2363
X16520Y14823
T02
X4441Y910
X4441Y2091
X4441Y3272
X5937Y4532
X6044Y910
X7044Y910
X8044Y910
X9044Y910
X10044Y910
X11044Y910
X12044Y910
X13044Y910
X14044Y910
X15044Y910
X16646Y910
X16646Y2091
X16646Y3272
X11370Y7522
X11028Y7997
X11370Y8471
X11882Y8351
X12118Y7997
X11882Y7642
X12059Y13847
X12044Y15083
X13044Y15083
X14044Y15083
X15044Y15083
X15044Y13682
X15835Y12906
X11044Y15083
X10044Y15083
X9044Y15083
X8044Y15083
X7044Y15083
X6044Y15083
X10047Y13910
X11051Y2178
M30
