G75*
%MOIN*%
%OFA0B0*%
%FSLAX25Y25*%
%IPPOS*%
%LPD*%
%AMOC8*
5,1,8,0,0,1.08239X$1,22.5*
%
%ADD10C,0.00394*%
%ADD11C,0.00787*%
%ADD12OC8,0.06600*%
%ADD13C,0.05600*%
%ADD14R,0.20000X0.09000*%
%ADD15C,0.00000*%
%ADD16C,0.02362*%
%ADD17C,0.04000*%
%ADD18R,0.03937X0.03937*%
%ADD19R,0.04134X0.08661*%
%ADD20C,0.02953*%
%ADD21C,0.05000*%
D10*
X0036538Y0001226D02*
X0036538Y0158706D01*
X0174333Y0158706D01*
X0174333Y0001226D01*
X0036538Y0001226D01*
D11*
X0114057Y0039218D02*
X0115042Y0039257D01*
X0119189Y0039722D01*
X0123266Y0040618D01*
X0127226Y0041936D01*
X0131027Y0043659D01*
X0134627Y0045771D01*
X0137986Y0048248D01*
X0141068Y0051062D01*
X0143840Y0054183D01*
X0146269Y0057576D01*
X0148331Y0061205D01*
X0150002Y0065029D01*
X0151265Y0069007D01*
X0152104Y0073096D01*
X0152512Y0077249D01*
X0152483Y0081423D01*
X0152404Y0081541D01*
X0152370Y0085610D01*
X0151911Y0089653D01*
X0151032Y0093627D01*
X0149743Y0097486D01*
X0148057Y0101190D01*
X0145993Y0104697D01*
X0143574Y0107969D01*
X0140826Y0110970D01*
X0137780Y0113668D01*
X0134468Y0116032D01*
X0130927Y0118038D01*
X0127196Y0119662D01*
X0123316Y0120887D01*
X0119328Y0121700D01*
X0115278Y0122092D01*
X0113933Y0121996D01*
X0112616Y0121709D01*
X0111353Y0121238D01*
X0110170Y0120592D01*
X0109090Y0119784D01*
X0108137Y0118831D01*
X0107329Y0117752D01*
X0106683Y0116568D01*
X0106212Y0115305D01*
X0105925Y0113988D01*
X0105829Y0112643D01*
X0105829Y0108549D01*
X0123821Y0090517D01*
X0125132Y0089416D01*
X0126269Y0088135D01*
X0127208Y0086704D01*
X0127928Y0085151D01*
X0128416Y0083509D01*
X0128660Y0081815D01*
X0128655Y0080103D01*
X0128402Y0078409D01*
X0127906Y0076771D01*
X0127176Y0075222D01*
X0126230Y0073795D01*
X0125086Y0072521D01*
X0123769Y0071427D01*
X0122308Y0070535D01*
X0120732Y0069865D01*
X0119076Y0069431D01*
X0117374Y0069243D01*
X0115663Y0069303D01*
X0113979Y0069612D01*
X0114057Y0039218D01*
X0114056Y0039736D02*
X0119250Y0039736D01*
X0122825Y0040522D02*
X0114054Y0040522D01*
X0114052Y0041308D02*
X0125338Y0041308D01*
X0127574Y0042093D02*
X0114050Y0042093D01*
X0114048Y0042879D02*
X0129307Y0042879D01*
X0131037Y0043665D02*
X0114046Y0043665D01*
X0114044Y0044451D02*
X0132377Y0044451D01*
X0133716Y0045237D02*
X0114042Y0045237D01*
X0114040Y0046023D02*
X0134968Y0046023D01*
X0136035Y0046809D02*
X0114038Y0046809D01*
X0114036Y0047595D02*
X0137101Y0047595D01*
X0138132Y0048381D02*
X0114034Y0048381D01*
X0114032Y0049167D02*
X0138993Y0049167D01*
X0139854Y0049953D02*
X0114030Y0049953D01*
X0114028Y0050738D02*
X0140714Y0050738D01*
X0141479Y0051524D02*
X0114026Y0051524D01*
X0114024Y0052310D02*
X0142177Y0052310D01*
X0142875Y0053096D02*
X0114022Y0053096D01*
X0114019Y0053882D02*
X0143573Y0053882D01*
X0144187Y0054668D02*
X0114017Y0054668D01*
X0114015Y0055454D02*
X0144750Y0055454D01*
X0145313Y0056240D02*
X0114013Y0056240D01*
X0114011Y0057026D02*
X0145875Y0057026D01*
X0146403Y0057812D02*
X0114009Y0057812D01*
X0114007Y0058598D02*
X0146850Y0058598D01*
X0147296Y0059384D02*
X0114005Y0059384D01*
X0114003Y0060169D02*
X0147743Y0060169D01*
X0148189Y0060955D02*
X0114001Y0060955D01*
X0113999Y0061741D02*
X0148566Y0061741D01*
X0148909Y0062527D02*
X0113997Y0062527D01*
X0113995Y0063313D02*
X0149252Y0063313D01*
X0149596Y0064099D02*
X0113993Y0064099D01*
X0113991Y0064885D02*
X0149939Y0064885D01*
X0150206Y0065671D02*
X0113989Y0065671D01*
X0113987Y0066457D02*
X0150455Y0066457D01*
X0150705Y0067243D02*
X0113985Y0067243D01*
X0113983Y0068029D02*
X0150954Y0068029D01*
X0151203Y0068814D02*
X0113981Y0068814D01*
X0113979Y0069600D02*
X0114041Y0069600D01*
X0119721Y0069600D02*
X0151386Y0069600D01*
X0151548Y0070386D02*
X0121958Y0070386D01*
X0123352Y0071172D02*
X0151709Y0071172D01*
X0151870Y0071958D02*
X0124409Y0071958D01*
X0125286Y0072744D02*
X0152032Y0072744D01*
X0152147Y0073530D02*
X0125992Y0073530D01*
X0126575Y0074316D02*
X0152224Y0074316D01*
X0152301Y0075102D02*
X0127097Y0075102D01*
X0127490Y0075888D02*
X0152378Y0075888D01*
X0152455Y0076674D02*
X0127860Y0076674D01*
X0128114Y0077460D02*
X0152510Y0077460D01*
X0152505Y0078245D02*
X0128352Y0078245D01*
X0128495Y0079031D02*
X0152499Y0079031D01*
X0152494Y0079817D02*
X0128613Y0079817D01*
X0128657Y0080603D02*
X0152488Y0080603D01*
X0152483Y0081389D02*
X0128659Y0081389D01*
X0128608Y0082175D02*
X0152399Y0082175D01*
X0152392Y0082961D02*
X0128495Y0082961D01*
X0128346Y0083747D02*
X0152386Y0083747D01*
X0152379Y0084533D02*
X0128112Y0084533D01*
X0127850Y0085319D02*
X0152373Y0085319D01*
X0152314Y0086105D02*
X0127486Y0086105D01*
X0127085Y0086890D02*
X0152225Y0086890D01*
X0152136Y0087676D02*
X0126570Y0087676D01*
X0125979Y0088462D02*
X0152046Y0088462D01*
X0151957Y0089248D02*
X0125281Y0089248D01*
X0124396Y0090034D02*
X0151827Y0090034D01*
X0151653Y0090820D02*
X0123519Y0090820D01*
X0122735Y0091606D02*
X0151479Y0091606D01*
X0151305Y0092392D02*
X0121951Y0092392D01*
X0121167Y0093178D02*
X0151132Y0093178D01*
X0150920Y0093964D02*
X0120382Y0093964D01*
X0119598Y0094750D02*
X0150657Y0094750D01*
X0150394Y0095536D02*
X0118814Y0095536D01*
X0118030Y0096321D02*
X0150132Y0096321D01*
X0149869Y0097107D02*
X0117246Y0097107D01*
X0116461Y0097893D02*
X0149557Y0097893D01*
X0149200Y0098679D02*
X0115677Y0098679D01*
X0114893Y0099465D02*
X0148842Y0099465D01*
X0148484Y0100251D02*
X0114109Y0100251D01*
X0113325Y0101037D02*
X0148126Y0101037D01*
X0147684Y0101823D02*
X0112540Y0101823D01*
X0111756Y0102609D02*
X0147222Y0102609D01*
X0146759Y0103395D02*
X0110972Y0103395D01*
X0110188Y0104181D02*
X0146297Y0104181D01*
X0145794Y0104966D02*
X0109404Y0104966D01*
X0108619Y0105752D02*
X0145213Y0105752D01*
X0144632Y0106538D02*
X0107835Y0106538D01*
X0107051Y0107324D02*
X0144051Y0107324D01*
X0143445Y0108110D02*
X0106267Y0108110D01*
X0105829Y0108896D02*
X0142725Y0108896D01*
X0142006Y0109682D02*
X0105829Y0109682D01*
X0105829Y0110468D02*
X0141286Y0110468D01*
X0140506Y0111254D02*
X0105829Y0111254D01*
X0105829Y0112040D02*
X0139618Y0112040D01*
X0138731Y0112826D02*
X0105842Y0112826D01*
X0105898Y0113612D02*
X0137843Y0113612D01*
X0136758Y0114397D02*
X0106014Y0114397D01*
X0106185Y0115183D02*
X0135657Y0115183D01*
X0134556Y0115969D02*
X0106460Y0115969D01*
X0106785Y0116755D02*
X0133192Y0116755D01*
X0131804Y0117541D02*
X0107214Y0117541D01*
X0107760Y0118327D02*
X0130263Y0118327D01*
X0128457Y0119113D02*
X0108419Y0119113D01*
X0109243Y0119899D02*
X0126446Y0119899D01*
X0123957Y0120685D02*
X0110339Y0120685D01*
X0111976Y0121471D02*
X0120455Y0121471D01*
D12*
X0150435Y0136817D03*
X0158349Y0129061D03*
X0166459Y0032722D03*
X0166459Y0020911D03*
X0166459Y0009100D03*
X0044412Y0009100D03*
X0044412Y0020911D03*
X0044412Y0032722D03*
D13*
X0060435Y0011900D02*
X0060435Y0006300D01*
X0070435Y0006300D02*
X0070435Y0011900D01*
X0080435Y0011900D02*
X0080435Y0006300D01*
X0090435Y0006300D02*
X0090435Y0011900D01*
X0100435Y0011900D02*
X0100435Y0006300D01*
X0110435Y0006300D02*
X0110435Y0011900D01*
X0120435Y0011900D02*
X0120435Y0006300D01*
X0130435Y0006300D02*
X0130435Y0011900D01*
X0140435Y0011900D02*
X0140435Y0006300D01*
X0150435Y0006300D02*
X0150435Y0011900D01*
X0150435Y0148032D02*
X0150435Y0153632D01*
X0140435Y0153632D02*
X0140435Y0148032D01*
X0130435Y0148032D02*
X0130435Y0153632D01*
X0120435Y0153632D02*
X0120435Y0148032D01*
X0110435Y0148032D02*
X0110435Y0153632D01*
X0100435Y0153632D02*
X0100435Y0148032D01*
X0090435Y0148032D02*
X0090435Y0153632D01*
X0080435Y0153632D02*
X0080435Y0148032D01*
X0070435Y0148032D02*
X0070435Y0153632D01*
X0060435Y0153632D02*
X0060435Y0148032D01*
D14*
X0048606Y0097366D03*
X0048606Y0062566D03*
D15*
X0109097Y0079966D02*
X0109099Y0080035D01*
X0109105Y0080103D01*
X0109115Y0080171D01*
X0109129Y0080238D01*
X0109147Y0080305D01*
X0109168Y0080370D01*
X0109194Y0080434D01*
X0109223Y0080496D01*
X0109255Y0080556D01*
X0109291Y0080615D01*
X0109331Y0080671D01*
X0109373Y0080725D01*
X0109419Y0080776D01*
X0109468Y0080825D01*
X0109519Y0080871D01*
X0109573Y0080913D01*
X0109629Y0080953D01*
X0109687Y0080989D01*
X0109748Y0081021D01*
X0109810Y0081050D01*
X0109874Y0081076D01*
X0109939Y0081097D01*
X0110006Y0081115D01*
X0110073Y0081129D01*
X0110141Y0081139D01*
X0110209Y0081145D01*
X0110278Y0081147D01*
X0110347Y0081145D01*
X0110415Y0081139D01*
X0110483Y0081129D01*
X0110550Y0081115D01*
X0110617Y0081097D01*
X0110682Y0081076D01*
X0110746Y0081050D01*
X0110808Y0081021D01*
X0110868Y0080989D01*
X0110927Y0080953D01*
X0110983Y0080913D01*
X0111037Y0080871D01*
X0111088Y0080825D01*
X0111137Y0080776D01*
X0111183Y0080725D01*
X0111225Y0080671D01*
X0111265Y0080615D01*
X0111301Y0080556D01*
X0111333Y0080496D01*
X0111362Y0080434D01*
X0111388Y0080370D01*
X0111409Y0080305D01*
X0111427Y0080238D01*
X0111441Y0080171D01*
X0111451Y0080103D01*
X0111457Y0080035D01*
X0111459Y0079966D01*
X0111457Y0079897D01*
X0111451Y0079829D01*
X0111441Y0079761D01*
X0111427Y0079694D01*
X0111409Y0079627D01*
X0111388Y0079562D01*
X0111362Y0079498D01*
X0111333Y0079436D01*
X0111301Y0079375D01*
X0111265Y0079317D01*
X0111225Y0079261D01*
X0111183Y0079207D01*
X0111137Y0079156D01*
X0111088Y0079107D01*
X0111037Y0079061D01*
X0110983Y0079019D01*
X0110927Y0078979D01*
X0110869Y0078943D01*
X0110808Y0078911D01*
X0110746Y0078882D01*
X0110682Y0078856D01*
X0110617Y0078835D01*
X0110550Y0078817D01*
X0110483Y0078803D01*
X0110415Y0078793D01*
X0110347Y0078787D01*
X0110278Y0078785D01*
X0110209Y0078787D01*
X0110141Y0078793D01*
X0110073Y0078803D01*
X0110006Y0078817D01*
X0109939Y0078835D01*
X0109874Y0078856D01*
X0109810Y0078882D01*
X0109748Y0078911D01*
X0109687Y0078943D01*
X0109629Y0078979D01*
X0109573Y0079019D01*
X0109519Y0079061D01*
X0109468Y0079107D01*
X0109419Y0079156D01*
X0109373Y0079207D01*
X0109331Y0079261D01*
X0109291Y0079317D01*
X0109255Y0079375D01*
X0109223Y0079436D01*
X0109194Y0079498D01*
X0109168Y0079562D01*
X0109147Y0079627D01*
X0109129Y0079694D01*
X0109115Y0079761D01*
X0109105Y0079829D01*
X0109099Y0079897D01*
X0109097Y0079966D01*
X0112522Y0084710D02*
X0112524Y0084779D01*
X0112530Y0084847D01*
X0112540Y0084915D01*
X0112554Y0084982D01*
X0112572Y0085049D01*
X0112593Y0085114D01*
X0112619Y0085178D01*
X0112648Y0085240D01*
X0112680Y0085300D01*
X0112716Y0085359D01*
X0112756Y0085415D01*
X0112798Y0085469D01*
X0112844Y0085520D01*
X0112893Y0085569D01*
X0112944Y0085615D01*
X0112998Y0085657D01*
X0113054Y0085697D01*
X0113112Y0085733D01*
X0113173Y0085765D01*
X0113235Y0085794D01*
X0113299Y0085820D01*
X0113364Y0085841D01*
X0113431Y0085859D01*
X0113498Y0085873D01*
X0113566Y0085883D01*
X0113634Y0085889D01*
X0113703Y0085891D01*
X0113772Y0085889D01*
X0113840Y0085883D01*
X0113908Y0085873D01*
X0113975Y0085859D01*
X0114042Y0085841D01*
X0114107Y0085820D01*
X0114171Y0085794D01*
X0114233Y0085765D01*
X0114293Y0085733D01*
X0114352Y0085697D01*
X0114408Y0085657D01*
X0114462Y0085615D01*
X0114513Y0085569D01*
X0114562Y0085520D01*
X0114608Y0085469D01*
X0114650Y0085415D01*
X0114690Y0085359D01*
X0114726Y0085300D01*
X0114758Y0085240D01*
X0114787Y0085178D01*
X0114813Y0085114D01*
X0114834Y0085049D01*
X0114852Y0084982D01*
X0114866Y0084915D01*
X0114876Y0084847D01*
X0114882Y0084779D01*
X0114884Y0084710D01*
X0114882Y0084641D01*
X0114876Y0084573D01*
X0114866Y0084505D01*
X0114852Y0084438D01*
X0114834Y0084371D01*
X0114813Y0084306D01*
X0114787Y0084242D01*
X0114758Y0084180D01*
X0114726Y0084119D01*
X0114690Y0084061D01*
X0114650Y0084005D01*
X0114608Y0083951D01*
X0114562Y0083900D01*
X0114513Y0083851D01*
X0114462Y0083805D01*
X0114408Y0083763D01*
X0114352Y0083723D01*
X0114294Y0083687D01*
X0114233Y0083655D01*
X0114171Y0083626D01*
X0114107Y0083600D01*
X0114042Y0083579D01*
X0113975Y0083561D01*
X0113908Y0083547D01*
X0113840Y0083537D01*
X0113772Y0083531D01*
X0113703Y0083529D01*
X0113634Y0083531D01*
X0113566Y0083537D01*
X0113498Y0083547D01*
X0113431Y0083561D01*
X0113364Y0083579D01*
X0113299Y0083600D01*
X0113235Y0083626D01*
X0113173Y0083655D01*
X0113112Y0083687D01*
X0113054Y0083723D01*
X0112998Y0083763D01*
X0112944Y0083805D01*
X0112893Y0083851D01*
X0112844Y0083900D01*
X0112798Y0083951D01*
X0112756Y0084005D01*
X0112716Y0084061D01*
X0112680Y0084119D01*
X0112648Y0084180D01*
X0112619Y0084242D01*
X0112593Y0084306D01*
X0112572Y0084371D01*
X0112554Y0084438D01*
X0112540Y0084505D01*
X0112530Y0084573D01*
X0112524Y0084641D01*
X0112522Y0084710D01*
X0117640Y0083509D02*
X0117642Y0083578D01*
X0117648Y0083646D01*
X0117658Y0083714D01*
X0117672Y0083781D01*
X0117690Y0083848D01*
X0117711Y0083913D01*
X0117737Y0083977D01*
X0117766Y0084039D01*
X0117798Y0084099D01*
X0117834Y0084158D01*
X0117874Y0084214D01*
X0117916Y0084268D01*
X0117962Y0084319D01*
X0118011Y0084368D01*
X0118062Y0084414D01*
X0118116Y0084456D01*
X0118172Y0084496D01*
X0118230Y0084532D01*
X0118291Y0084564D01*
X0118353Y0084593D01*
X0118417Y0084619D01*
X0118482Y0084640D01*
X0118549Y0084658D01*
X0118616Y0084672D01*
X0118684Y0084682D01*
X0118752Y0084688D01*
X0118821Y0084690D01*
X0118890Y0084688D01*
X0118958Y0084682D01*
X0119026Y0084672D01*
X0119093Y0084658D01*
X0119160Y0084640D01*
X0119225Y0084619D01*
X0119289Y0084593D01*
X0119351Y0084564D01*
X0119411Y0084532D01*
X0119470Y0084496D01*
X0119526Y0084456D01*
X0119580Y0084414D01*
X0119631Y0084368D01*
X0119680Y0084319D01*
X0119726Y0084268D01*
X0119768Y0084214D01*
X0119808Y0084158D01*
X0119844Y0084099D01*
X0119876Y0084039D01*
X0119905Y0083977D01*
X0119931Y0083913D01*
X0119952Y0083848D01*
X0119970Y0083781D01*
X0119984Y0083714D01*
X0119994Y0083646D01*
X0120000Y0083578D01*
X0120002Y0083509D01*
X0120000Y0083440D01*
X0119994Y0083372D01*
X0119984Y0083304D01*
X0119970Y0083237D01*
X0119952Y0083170D01*
X0119931Y0083105D01*
X0119905Y0083041D01*
X0119876Y0082979D01*
X0119844Y0082918D01*
X0119808Y0082860D01*
X0119768Y0082804D01*
X0119726Y0082750D01*
X0119680Y0082699D01*
X0119631Y0082650D01*
X0119580Y0082604D01*
X0119526Y0082562D01*
X0119470Y0082522D01*
X0119412Y0082486D01*
X0119351Y0082454D01*
X0119289Y0082425D01*
X0119225Y0082399D01*
X0119160Y0082378D01*
X0119093Y0082360D01*
X0119026Y0082346D01*
X0118958Y0082336D01*
X0118890Y0082330D01*
X0118821Y0082328D01*
X0118752Y0082330D01*
X0118684Y0082336D01*
X0118616Y0082346D01*
X0118549Y0082360D01*
X0118482Y0082378D01*
X0118417Y0082399D01*
X0118353Y0082425D01*
X0118291Y0082454D01*
X0118230Y0082486D01*
X0118172Y0082522D01*
X0118116Y0082562D01*
X0118062Y0082604D01*
X0118011Y0082650D01*
X0117962Y0082699D01*
X0117916Y0082750D01*
X0117874Y0082804D01*
X0117834Y0082860D01*
X0117798Y0082918D01*
X0117766Y0082979D01*
X0117737Y0083041D01*
X0117711Y0083105D01*
X0117690Y0083170D01*
X0117672Y0083237D01*
X0117658Y0083304D01*
X0117648Y0083372D01*
X0117642Y0083440D01*
X0117640Y0083509D01*
X0120002Y0079966D02*
X0120004Y0080035D01*
X0120010Y0080103D01*
X0120020Y0080171D01*
X0120034Y0080238D01*
X0120052Y0080305D01*
X0120073Y0080370D01*
X0120099Y0080434D01*
X0120128Y0080496D01*
X0120160Y0080556D01*
X0120196Y0080615D01*
X0120236Y0080671D01*
X0120278Y0080725D01*
X0120324Y0080776D01*
X0120373Y0080825D01*
X0120424Y0080871D01*
X0120478Y0080913D01*
X0120534Y0080953D01*
X0120592Y0080989D01*
X0120653Y0081021D01*
X0120715Y0081050D01*
X0120779Y0081076D01*
X0120844Y0081097D01*
X0120911Y0081115D01*
X0120978Y0081129D01*
X0121046Y0081139D01*
X0121114Y0081145D01*
X0121183Y0081147D01*
X0121252Y0081145D01*
X0121320Y0081139D01*
X0121388Y0081129D01*
X0121455Y0081115D01*
X0121522Y0081097D01*
X0121587Y0081076D01*
X0121651Y0081050D01*
X0121713Y0081021D01*
X0121773Y0080989D01*
X0121832Y0080953D01*
X0121888Y0080913D01*
X0121942Y0080871D01*
X0121993Y0080825D01*
X0122042Y0080776D01*
X0122088Y0080725D01*
X0122130Y0080671D01*
X0122170Y0080615D01*
X0122206Y0080556D01*
X0122238Y0080496D01*
X0122267Y0080434D01*
X0122293Y0080370D01*
X0122314Y0080305D01*
X0122332Y0080238D01*
X0122346Y0080171D01*
X0122356Y0080103D01*
X0122362Y0080035D01*
X0122364Y0079966D01*
X0122362Y0079897D01*
X0122356Y0079829D01*
X0122346Y0079761D01*
X0122332Y0079694D01*
X0122314Y0079627D01*
X0122293Y0079562D01*
X0122267Y0079498D01*
X0122238Y0079436D01*
X0122206Y0079375D01*
X0122170Y0079317D01*
X0122130Y0079261D01*
X0122088Y0079207D01*
X0122042Y0079156D01*
X0121993Y0079107D01*
X0121942Y0079061D01*
X0121888Y0079019D01*
X0121832Y0078979D01*
X0121774Y0078943D01*
X0121713Y0078911D01*
X0121651Y0078882D01*
X0121587Y0078856D01*
X0121522Y0078835D01*
X0121455Y0078817D01*
X0121388Y0078803D01*
X0121320Y0078793D01*
X0121252Y0078787D01*
X0121183Y0078785D01*
X0121114Y0078787D01*
X0121046Y0078793D01*
X0120978Y0078803D01*
X0120911Y0078817D01*
X0120844Y0078835D01*
X0120779Y0078856D01*
X0120715Y0078882D01*
X0120653Y0078911D01*
X0120592Y0078943D01*
X0120534Y0078979D01*
X0120478Y0079019D01*
X0120424Y0079061D01*
X0120373Y0079107D01*
X0120324Y0079156D01*
X0120278Y0079207D01*
X0120236Y0079261D01*
X0120196Y0079317D01*
X0120160Y0079375D01*
X0120128Y0079436D01*
X0120099Y0079498D01*
X0120073Y0079562D01*
X0120052Y0079627D01*
X0120034Y0079694D01*
X0120020Y0079761D01*
X0120010Y0079829D01*
X0120004Y0079897D01*
X0120002Y0079966D01*
X0112522Y0075222D02*
X0112524Y0075291D01*
X0112530Y0075359D01*
X0112540Y0075427D01*
X0112554Y0075494D01*
X0112572Y0075561D01*
X0112593Y0075626D01*
X0112619Y0075690D01*
X0112648Y0075752D01*
X0112680Y0075812D01*
X0112716Y0075871D01*
X0112756Y0075927D01*
X0112798Y0075981D01*
X0112844Y0076032D01*
X0112893Y0076081D01*
X0112944Y0076127D01*
X0112998Y0076169D01*
X0113054Y0076209D01*
X0113112Y0076245D01*
X0113173Y0076277D01*
X0113235Y0076306D01*
X0113299Y0076332D01*
X0113364Y0076353D01*
X0113431Y0076371D01*
X0113498Y0076385D01*
X0113566Y0076395D01*
X0113634Y0076401D01*
X0113703Y0076403D01*
X0113772Y0076401D01*
X0113840Y0076395D01*
X0113908Y0076385D01*
X0113975Y0076371D01*
X0114042Y0076353D01*
X0114107Y0076332D01*
X0114171Y0076306D01*
X0114233Y0076277D01*
X0114293Y0076245D01*
X0114352Y0076209D01*
X0114408Y0076169D01*
X0114462Y0076127D01*
X0114513Y0076081D01*
X0114562Y0076032D01*
X0114608Y0075981D01*
X0114650Y0075927D01*
X0114690Y0075871D01*
X0114726Y0075812D01*
X0114758Y0075752D01*
X0114787Y0075690D01*
X0114813Y0075626D01*
X0114834Y0075561D01*
X0114852Y0075494D01*
X0114866Y0075427D01*
X0114876Y0075359D01*
X0114882Y0075291D01*
X0114884Y0075222D01*
X0114882Y0075153D01*
X0114876Y0075085D01*
X0114866Y0075017D01*
X0114852Y0074950D01*
X0114834Y0074883D01*
X0114813Y0074818D01*
X0114787Y0074754D01*
X0114758Y0074692D01*
X0114726Y0074631D01*
X0114690Y0074573D01*
X0114650Y0074517D01*
X0114608Y0074463D01*
X0114562Y0074412D01*
X0114513Y0074363D01*
X0114462Y0074317D01*
X0114408Y0074275D01*
X0114352Y0074235D01*
X0114294Y0074199D01*
X0114233Y0074167D01*
X0114171Y0074138D01*
X0114107Y0074112D01*
X0114042Y0074091D01*
X0113975Y0074073D01*
X0113908Y0074059D01*
X0113840Y0074049D01*
X0113772Y0074043D01*
X0113703Y0074041D01*
X0113634Y0074043D01*
X0113566Y0074049D01*
X0113498Y0074059D01*
X0113431Y0074073D01*
X0113364Y0074091D01*
X0113299Y0074112D01*
X0113235Y0074138D01*
X0113173Y0074167D01*
X0113112Y0074199D01*
X0113054Y0074235D01*
X0112998Y0074275D01*
X0112944Y0074317D01*
X0112893Y0074363D01*
X0112844Y0074412D01*
X0112798Y0074463D01*
X0112756Y0074517D01*
X0112716Y0074573D01*
X0112680Y0074631D01*
X0112648Y0074692D01*
X0112619Y0074754D01*
X0112593Y0074818D01*
X0112572Y0074883D01*
X0112554Y0074950D01*
X0112540Y0075017D01*
X0112530Y0075085D01*
X0112524Y0075153D01*
X0112522Y0075222D01*
D16*
X0113703Y0075222D03*
X0110278Y0079966D03*
X0113703Y0084710D03*
X0118821Y0083509D03*
X0121183Y0079966D03*
D17*
X0118821Y0076423D03*
D18*
X0060435Y0124809D03*
X0060435Y0136620D03*
D19*
X0054628Y0130714D03*
X0066243Y0130714D03*
D20*
X0077325Y0132565D03*
X0074018Y0114376D03*
X0074018Y0105478D03*
X0062404Y0097525D03*
X0059176Y0088667D03*
X0067483Y0088667D03*
X0075711Y0088667D03*
X0091420Y0088746D03*
X0101695Y0088076D03*
X0102168Y0072486D03*
X0095317Y0054927D03*
X0093506Y0044179D03*
X0086065Y0034061D03*
X0075632Y0035006D03*
X0092404Y0023628D03*
X0124412Y0027328D03*
X0140435Y0040084D03*
X0158506Y0047328D03*
X0158585Y0065714D03*
X0159294Y0085124D03*
X0158900Y0102919D03*
X0150357Y0117210D03*
X0135987Y0129415D03*
X0165199Y0148234D03*
X0124924Y0084454D03*
X0075514Y0071226D03*
X0067325Y0071226D03*
X0059097Y0071187D03*
X0050790Y0071187D03*
X0042561Y0071226D03*
X0042522Y0053943D03*
X0050750Y0053943D03*
X0046223Y0046580D03*
X0058979Y0053943D03*
X0062325Y0062486D03*
X0050869Y0088667D03*
X0042561Y0088706D03*
X0042522Y0105714D03*
X0050750Y0105714D03*
X0059018Y0105714D03*
X0050672Y0114336D03*
X0044569Y0131895D03*
X0045829Y0149336D03*
D21*
X0100475Y0139100D03*
X0120593Y0138470D03*
X0059372Y0045320D03*
X0110514Y0021777D03*
M02*
